<?xml version="1.0" encoding="utf-8"?>
<!-- Generator: Adobe Illustrator 13.0.0, SVG Export Plug-In . SVG Version: 6.00 Build 14948)  -->
<!DOCTYPE svg PUBLIC "-//W3C//DTD SVG 1.1//EN" "http://www.w3.org/Graphics/SVG/1.1/DTD/svg11.dtd">
<svg version="1.1" id="Layer_1" xmlns="http://www.w3.org/2000/svg" xmlns:xlink="http://www.w3.org/1999/xlink" x="0px" y="0px"
	 width="444px" height="123px" viewBox="0 0 444 123" enable-background="new 0 0 444 123" xml:space="preserve">
<g enable-background="new    ">
	<g>
		<g>
			<g>
				<defs>
					<path id="SVGID_1_" d="M189.835,43.617l-2.686-4.03c0.107,0.162,0.29,0.285,0.537,0.305l2.686,4.03
						C190.125,43.902,189.943,43.779,189.835,43.617z"/>
				</defs>
				<clipPath id="SVGID_2_">
					<use xlink:href="#SVGID_1_"  overflow="visible"/>
				</clipPath>
				<g clip-path="url(#SVGID_2_)" enable-background="new    ">
					<path fill="#767273" d="M187.689,39.892l2.686,4.03c-0.247-0.02-0.432-0.143-0.537-0.305l-2.686-4.03
						C187.259,39.75,187.442,39.873,187.689,39.892"/>
				</g>
			</g>
		</g>
	</g>
</g>
<g>
	<polygon fill="#787575" points="192.292,40.826 194.976,44.856 190.373,43.922 187.689,39.892 	"/>
</g>
<g enable-background="new    ">
	<g>
		<g>
			<g>
				<defs>
					<path id="SVGID_3_" d="M194.044,42.088l2.684,4.03c-0.41-0.616-1.012-1.085-1.752-1.262l-2.684-4.03
						C193.031,41.003,193.634,41.472,194.044,42.088z"/>
				</defs>
				<clipPath id="SVGID_4_">
					<use xlink:href="#SVGID_3_"  overflow="visible"/>
				</clipPath>
				<g clip-path="url(#SVGID_4_)" enable-background="new    ">
					<path fill="#767273" d="M194.044,42.088l2.684,4.03c-0.41-0.616-1.012-1.085-1.752-1.262l-2.684-4.03
						C193.031,41.003,193.634,41.472,194.044,42.088"/>
				</g>
			</g>
		</g>
	</g>
</g>
<g enable-background="new    ">
	<g>
		<g>
			<g>
				<defs>
					<path id="SVGID_5_" d="M198.312,53.627l2.686,4.03c-0.208-0.313-0.554-0.514-0.896-0.514c-0.363,0-0.727,0.225-0.929,0.782
						l-2.686-4.03c0.203-0.557,0.565-0.782,0.931-0.782C197.76,53.112,198.103,53.314,198.312,53.627z"/>
				</defs>
				<clipPath id="SVGID_6_">
					<use xlink:href="#SVGID_5_"  overflow="visible"/>
				</clipPath>
				<g clip-path="url(#SVGID_6_)" enable-background="new    ">
					<path fill="#767273" d="M198.312,53.627l2.686,4.03c-0.208-0.313-0.554-0.514-0.896-0.514c-0.363,0-0.727,0.225-0.929,0.782
						l-2.686-4.03c0.203-0.557,0.565-0.782,0.931-0.782C197.76,53.112,198.103,53.314,198.312,53.627"/>
				</g>
			</g>
		</g>
	</g>
</g>
<g>
	<polygon fill="#787475" points="196.487,53.895 199.171,57.925 187.682,93.875 184.998,89.845 	"/>
</g>
<g enable-background="new    ">
	<g>
		<g>
			<g>
				<defs>
					<path id="SVGID_7_" d="M243.031,52.278l2.686,4.03c-0.131-0.196-0.321-0.296-0.521-0.296c-0.267,0-0.55,0.179-0.731,0.547
						l-2.686-4.03c0.185-0.368,0.469-0.547,0.734-0.547C242.71,51.981,242.9,52.082,243.031,52.278z"/>
				</defs>
				<clipPath id="SVGID_8_">
					<use xlink:href="#SVGID_7_"  overflow="visible"/>
				</clipPath>
				<g clip-path="url(#SVGID_8_)" enable-background="new    ">
					<path fill="#767273" d="M243.031,52.278l2.686,4.03c-0.131-0.196-0.321-0.296-0.521-0.296c-0.267,0-0.55,0.179-0.731,0.547
						l-2.686-4.03c0.185-0.368,0.469-0.547,0.734-0.547C242.71,51.981,242.9,52.082,243.031,52.278"/>
				</g>
			</g>
		</g>
	</g>
</g>
<g enable-background="new    ">
	<g>
		<g>
			<g>
				<defs>
					<path id="SVGID_9_" d="M172.225,107.52c-0.894-1.344-1.789-2.687-2.684-4.027c0.122,0.182,0.368,0.318,0.752,0.34l2.684,4.027
						C172.593,107.839,172.346,107.702,172.225,107.52z"/>
				</defs>
				<clipPath id="SVGID_10_">
					<use xlink:href="#SVGID_9_"  overflow="visible"/>
				</clipPath>
				<g clip-path="url(#SVGID_10_)" enable-background="new    ">
					<path fill="#767273" d="M170.293,103.83l2.684,4.029c-0.384-0.021-0.631-0.157-0.752-0.34l-2.684-4.029
						C169.663,103.672,169.909,103.811,170.293,103.83"/>
				</g>
			</g>
		</g>
	</g>
</g>
<g enable-background="new    ">
	<g>
		<g>
			<g>
				<defs>
					<path id="SVGID_11_" d="M269.555,38.521c0.896,1.343,1.789,2.687,2.684,4.03c0.166,0.249-0.195,0.595-1.896,1.039
						c-3.104,0.808-5.648,0.503-6.664,4.547l-2.684-4.03c1.016-4.044,3.561-3.739,6.664-4.547
						C269.357,39.116,269.721,38.77,269.555,38.521z"/>
				</defs>
				<clipPath id="SVGID_12_">
					<use xlink:href="#SVGID_11_"  overflow="visible"/>
				</clipPath>
				<g clip-path="url(#SVGID_12_)" enable-background="new    ">
					<path fill="#767273" d="M269.555,38.521l2.684,4.03c0.166,0.249-0.195,0.595-1.896,1.039c-3.104,0.808-5.648,0.503-6.664,4.547
						l-2.684-4.03c1.016-4.044,3.561-3.739,6.664-4.547C269.357,39.116,269.721,38.77,269.555,38.521"/>
				</g>
			</g>
		</g>
	</g>
</g>
<g enable-background="new    ">
	<g>
		<g>
			<g>
				<defs>
					<path id="SVGID_13_" d="M188.061,101.645c-0.895-1.344-1.789-2.688-2.684-4.029c-0.1-0.146-0.188-0.292-0.269-0.436
						c-1.121-1.934-1.053-4.603-0.111-7.335l2.684,4.03c-0.938,2.732-1.008,5.4,0.113,7.334
						C187.874,101.352,187.963,101.497,188.061,101.645z"/>
				</defs>
				<clipPath id="SVGID_14_">
					<use xlink:href="#SVGID_13_"  overflow="visible"/>
				</clipPath>
				<g clip-path="url(#SVGID_14_)" enable-background="new    ">
					<path fill="#767273" d="M184.998,89.845l2.684,4.03c-0.938,2.732-1.008,5.4,0.113,7.334c0.08,0.143,0.169,0.288,0.267,0.436
						l-2.684-4.029c-0.1-0.146-0.188-0.292-0.269-0.436C183.99,95.247,184.058,92.578,184.998,89.845"/>
				</g>
			</g>
		</g>
	</g>
</g>
<g>
	<polygon fill="#787475" points="180.404,103.452 183.087,107.482 172.977,107.859 170.293,103.83 	"/>
</g>
<g>
	<polygon fill="#787575" points="214.109,38.436 216.792,42.466 219.441,84.105 216.757,80.076 	"/>
</g>
<g>
	<polygon fill="#787575" points="192.438,103.955 195.122,107.984 183.087,107.482 180.404,103.452 	"/>
</g>
<g enable-background="new    ">
	<g>
		<g>
			<g>
				<defs>
					<path id="SVGID_15_" d="M193.264,102.785c0.896,1.343,1.789,2.688,2.686,4.029c0.326,0.492,0.029,1.127-0.826,1.17
						l-2.686-4.029C193.295,103.912,193.591,103.277,193.264,102.785z"/>
				</defs>
				<clipPath id="SVGID_16_">
					<use xlink:href="#SVGID_15_"  overflow="visible"/>
				</clipPath>
				<g clip-path="url(#SVGID_16_)" enable-background="new    ">
					<path fill="#767273" d="M193.264,102.785l2.686,4.029c0.326,0.492,0.029,1.127-0.826,1.17l-2.686-4.029
						C193.295,103.912,193.591,103.277,193.264,102.785"/>
				</g>
			</g>
		</g>
	</g>
</g>
<g>
	<polygon fill="#787475" points="241.777,52.528 244.46,56.558 210.966,105.164 208.281,101.134 	"/>
</g>
<g enable-background="new    ">
	<g>
		<g>
			<g>
				<defs>
					<path id="SVGID_17_" d="M205.354,106.572l-2.684-4.03c0.5,0.751,1.188,1.079,1.931,1.079c1.292,0,2.752-0.992,3.68-2.487
						l2.686,4.03c-0.928,1.495-2.388,2.486-3.68,2.486C206.542,107.65,205.854,107.322,205.354,106.572z"/>
				</defs>
				<clipPath id="SVGID_18_">
					<use xlink:href="#SVGID_17_"  overflow="visible"/>
				</clipPath>
				<g clip-path="url(#SVGID_18_)" enable-background="new    ">
					<path fill="#767273" d="M208.281,101.134l2.685,4.03c-0.928,1.495-2.388,2.486-3.68,2.486c-0.744,0-1.434-0.328-1.933-1.078
						l-2.684-4.03c0.5,0.751,1.188,1.079,1.931,1.079C205.895,103.621,207.354,102.629,208.281,101.134"/>
				</g>
			</g>
		</g>
	</g>
</g>
<g enable-background="new    ">
	<g>
		<g>
			<g>
				<defs>
					<path id="SVGID_19_" d="M224.251,107.652l-2.686-4.029c0.146,0.219,0.447,0.377,0.896,0.377l2.684,4.03
						C224.698,108.03,224.396,107.872,224.251,107.652z"/>
				</defs>
				<clipPath id="SVGID_20_">
					<use xlink:href="#SVGID_19_"  overflow="visible"/>
				</clipPath>
				<g clip-path="url(#SVGID_20_)" enable-background="new    ">
					<path fill="#767273" d="M222.462,104l2.684,4.03c-0.446,0-0.749-0.158-0.895-0.378l-2.686-4.029
						C221.713,103.842,222.014,104,222.462,104"/>
				</g>
			</g>
		</g>
	</g>
</g>
<g>
	<polygon fill="#787475" points="260.995,44.107 263.679,48.137 251.447,97.246 248.763,93.216 	"/>
</g>
<g>
	<polygon fill="#787475" points="240.56,103.391 243.243,107.42 225.146,108.03 222.462,104 	"/>
</g>
<g enable-background="new    ">
	<g>
		<g>
			<g>
				<defs>
					<path id="SVGID_21_" d="M252.467,102.641l-2.684-4.031c-1.034-1.551-1.479-3.41-1.021-5.394l2.684,4.03
						C250.988,99.229,251.433,101.087,252.467,102.641z"/>
				</defs>
				<clipPath id="SVGID_22_">
					<use xlink:href="#SVGID_21_"  overflow="visible"/>
				</clipPath>
				<g clip-path="url(#SVGID_22_)" enable-background="new    ">
					<path fill="#767273" d="M248.763,93.216l2.684,4.03c-0.459,1.982-0.014,3.842,1.021,5.395l-2.684-4.031
						C248.75,97.059,248.304,95.198,248.763,93.216"/>
				</g>
			</g>
		</g>
	</g>
</g>
<g>
	<polygon fill="#787575" points="255.453,103.938 258.137,107.968 243.243,107.42 240.56,103.391 	"/>
</g>
<g enable-background="new    ">
	<g>
		<g>
			<g>
				<defs>
					<path id="SVGID_23_" d="M256.225,102.982c0.896,1.343,1.788,2.687,2.686,4.028c0.264,0.396,0.037,0.911-0.771,0.955
						l-2.684-4.028C256.264,103.895,256.488,103.379,256.225,102.982z"/>
				</defs>
				<clipPath id="SVGID_24_">
					<use xlink:href="#SVGID_23_"  overflow="visible"/>
				</clipPath>
				<g clip-path="url(#SVGID_24_)" enable-background="new    ">
					<path fill="#767273" d="M256.225,102.982l2.686,4.028c0.264,0.396,0.037,0.911-0.771,0.955l-2.684-4.028
						C256.264,103.895,256.488,103.379,256.225,102.982"/>
				</g>
			</g>
		</g>
	</g>
</g>
<g>
	<path fill="#E2E2E2" d="M245.338,37.896l22.667,0.144c0.432,0,3.543,0.504-0.346,1.52c-3.104,0.808-5.648,0.503-6.664,4.547
		l-12.232,49.109c-1.016,4.386,2.396,8.17,6.81,9.354c0.998,0.244,1.061,1.304-0.118,1.367l-14.896-0.549L222.462,104
		c-1.314,0-1.365-1.365,0.063-1.616c4.229-0.433,7.969-3.919,8.782-6.778l11.896-42.646c0.001-0.644-0.331-0.979-0.695-0.979
		c-0.267,0-0.551,0.179-0.734,0.547l-33.495,48.606c-0.928,1.495-2.388,2.487-3.68,2.487c-1.396,0-2.595-1.157-2.721-4.087
		l-3.371-45.316c-0.037-0.628-0.565-1.105-1.094-1.105c-0.363,0-0.728,0.226-0.931,0.782l-11.487,35.951
		c-0.94,2.732-1.009,5.401,0.111,7.334c1.112,1.986,3.978,4.413,7.331,5.096c1.305,0.314,1.238,1.617-0.003,1.682l-12.034-0.503
		l-10.108,0.378c-1.188-0.063-1.061-1.24,0.003-1.432c3.48-0.744,7.473-4.285,9.281-9.327l14.884-47.832
		c0.624-1.807-0.362-3.982-2.169-4.414l-4.604-0.934c-0.809-0.063-0.924-1.241,0.002-1.241l26.417-0.215l2.648,41.64l1.938-2.354
		l25.208-37.396C244.21,39.82,244.959,38.642,245.338,37.896z"/>
</g>
<g enable-background="new    ">
	<g>
		<g>
			<g>
				<defs>
					<path id="SVGID_25_" d="M281.736,43.439l-2.684-4.03c0.087,0.131,0.211,0.223,0.375,0.249l2.684,4.03
						C281.947,43.662,281.823,43.57,281.736,43.439z"/>
				</defs>
				<clipPath id="SVGID_26_">
					<use xlink:href="#SVGID_25_"  overflow="visible"/>
				</clipPath>
				<g clip-path="url(#SVGID_26_)" enable-background="new    ">
					<path fill="#767273" d="M279.428,39.658l2.684,4.03c-0.164-0.025-0.286-0.117-0.375-0.249l-2.684-4.03
						C279.14,39.54,279.264,39.632,279.428,39.658"/>
				</g>
			</g>
		</g>
	</g>
</g>
<g enable-background="new    ">
	<g>
		<g>
			<g>
				<defs>
					<path id="SVGID_27_" d="M285.05,42.659l2.684,4.03c-1.014-1.523-3.227-2.442-5.622-3.001l-2.684-4.03
						C281.823,40.217,284.036,41.136,285.05,42.659z"/>
				</defs>
				<clipPath id="SVGID_28_">
					<use xlink:href="#SVGID_27_"  overflow="visible"/>
				</clipPath>
				<g clip-path="url(#SVGID_28_)" enable-background="new    ">
					<path fill="#767273" d="M285.05,42.659l2.684,4.03c-1.014-1.523-3.227-2.442-5.622-3.001l-2.684-4.03
						C281.823,40.217,284.036,41.136,285.05,42.659"/>
				</g>
			</g>
		</g>
	</g>
</g>
<g enable-background="new    ">
	<g>
		<g>
			<g>
				<defs>
					<path id="SVGID_29_" d="M310.966,38.532l2.684,4.03c0.507,0.761,0.233,2.055-1.769,2.231c-3.06,0.27-6.258,2.445-7.009,5.051
						l-2.684-4.03c0.752-2.606,3.949-4.782,7.007-5.051C311.198,40.587,311.473,39.293,310.966,38.532z"/>
				</defs>
				<clipPath id="SVGID_30_">
					<use xlink:href="#SVGID_29_"  overflow="visible"/>
				</clipPath>
				<g clip-path="url(#SVGID_30_)" enable-background="new    ">
					<path fill="#767273" d="M310.966,38.532l2.684,4.03c0.507,0.761,0.233,2.055-1.769,2.231c-3.06,0.27-6.258,2.445-7.009,5.051
						l-2.684-4.03c0.752-2.606,3.949-4.782,7.007-5.051C311.198,40.587,311.473,39.293,310.966,38.532"/>
				</g>
			</g>
		</g>
	</g>
</g>
<g enable-background="new    ">
	<g>
		<g>
			<g>
				<defs>
					<path id="SVGID_31_" d="M261.054,107.504l-2.683-4.029c0.091,0.137,0.257,0.229,0.513,0.229l2.684,4.03
						C261.312,107.732,261.146,107.641,261.054,107.504z"/>
				</defs>
				<clipPath id="SVGID_32_">
					<use xlink:href="#SVGID_31_"  overflow="visible"/>
				</clipPath>
				<g clip-path="url(#SVGID_32_)" enable-background="new    ">
					<path fill="#767273" d="M258.884,103.703l2.684,4.029c-0.256,0-0.422-0.092-0.514-0.229l-2.683-4.028
						C258.462,103.611,258.628,103.703,258.884,103.703"/>
				</g>
			</g>
		</g>
	</g>
</g>
<g>
	<polygon fill="#787475" points="302.19,45.814 304.872,49.844 290.618,99.124 287.935,95.094 	"/>
</g>
<g>
	<polygon fill="#787475" points="276.146,103.184 278.829,107.213 261.567,107.732 258.884,103.703 	"/>
</g>
<g enable-background="new    ">
	<g>
		<g>
			<g>
				<defs>
					<path id="SVGID_33_" d="M291.533,103.575l-2.686-4.03c-0.967-1.451-1.255-3.163-0.915-4.451l2.686,4.03
						C290.278,100.412,290.566,102.124,291.533,103.575z"/>
				</defs>
				<clipPath id="SVGID_34_">
					<use xlink:href="#SVGID_33_"  overflow="visible"/>
				</clipPath>
				<g clip-path="url(#SVGID_34_)" enable-background="new    ">
					<path fill="#767273" d="M287.935,95.094l2.686,4.03c-0.342,1.288-0.054,3,0.915,4.452l-2.686-4.03
						C287.883,98.094,287.595,96.382,287.935,95.094"/>
				</g>
			</g>
		</g>
	</g>
</g>
<g>
	<polygon fill="#787575" points="294.115,103.874 296.799,107.904 278.829,107.213 276.146,103.184 	"/>
</g>
<g enable-background="new    ">
	<g>
		<g>
			<g>
				<defs>
					<path id="SVGID_35_" d="M294.525,102.77c0.896,1.346,1.789,2.688,2.686,4.03c0.286,0.431,0.141,1.104-0.41,1.104l-2.686-4.03
						C294.666,103.874,294.812,103.199,294.525,102.77z"/>
				</defs>
				<clipPath id="SVGID_36_">
					<use xlink:href="#SVGID_35_"  overflow="visible"/>
				</clipPath>
				<g clip-path="url(#SVGID_36_)" enable-background="new    ">
					<path fill="#767273" d="M294.525,102.77l2.686,4.03c0.286,0.431,0.141,1.104-0.41,1.104l-2.686-4.03
						C294.666,103.874,294.812,103.199,294.525,102.77"/>
				</g>
			</g>
		</g>
	</g>
</g>
<g>
	<path fill="#E2E2E2" d="M279.529,37.725l30.429,0.252c1.432,0,2.103,2.534-0.761,2.786c-3.058,0.27-6.255,2.445-7.007,5.051
		l-14.256,49.279c-0.688,2.616,1.21,6.983,6.12,7.353c0.809,0.188,0.807,1.43,0.063,1.43l-17.972-0.689l-17.262,0.521
		c-0.938,0-0.682-1.239,0.119-1.365c2.366-0.432,9.243-3.101,10.555-7.325l15.896-49.198c0.994-3.541-2.293-5.285-6.024-6.157
		C278.619,39.532,278.783,37.788,279.529,37.725z"/>
</g>
<g enable-background="new    ">
	<g>
		<g>
			<g>
				<defs>
					<path id="SVGID_37_" d="M156.5,36.906c0.895,1.343,1.789,2.687,2.684,4.03c0.284,0.426,0.454,0.959,0.464,1.609l-2.684-4.03
						C156.954,37.864,156.783,37.332,156.5,36.906z"/>
				</defs>
				<clipPath id="SVGID_38_">
					<use xlink:href="#SVGID_37_"  overflow="visible"/>
				</clipPath>
				<g clip-path="url(#SVGID_38_)" enable-background="new    ">
					<path fill="#767273" d="M156.5,36.906l2.684,4.03c0.284,0.426,0.454,0.959,0.464,1.609l-2.684-4.03
						C156.954,37.864,156.783,37.332,156.5,36.906"/>
				</g>
			</g>
		</g>
	</g>
</g>
<g enable-background="new    ">
	<g>
		<g>
			<g>
				<defs>
					<path id="SVGID_39_" d="M142.808,53.465l2.686,4.03c-0.078-0.117-0.167-0.177-0.265-0.177c-0.129,0-0.271,0.11-0.415,0.335
						l-2.684-4.03c0.144-0.225,0.285-0.334,0.415-0.335C142.641,53.289,142.73,53.348,142.808,53.465z"/>
				</defs>
				<clipPath id="SVGID_40_">
					<use xlink:href="#SVGID_39_"  overflow="visible"/>
				</clipPath>
				<g clip-path="url(#SVGID_40_)" enable-background="new    ">
					<path fill="#767273" d="M142.808,53.465l2.686,4.03c-0.078-0.117-0.167-0.177-0.265-0.177c-0.129,0-0.271,0.11-0.415,0.335
						l-2.684-4.03c0.144-0.225,0.285-0.334,0.415-0.335C142.641,53.289,142.73,53.348,142.808,53.465"/>
				</g>
			</g>
		</g>
	</g>
</g>
<g enable-background="new    ">
	<g>
		<g>
			<g>
				<defs>
					<path id="SVGID_41_" d="M142.131,53.624l2.684,4.03c-4.985,7.083-11.854,15.764-16.778,22.792l-2.686-4.028
						C130.274,69.389,137.144,60.706,142.131,53.624z"/>
				</defs>
				<clipPath id="SVGID_42_">
					<use xlink:href="#SVGID_41_"  overflow="visible"/>
				</clipPath>
				<g clip-path="url(#SVGID_42_)" enable-background="new    ">
					<path fill="#767273" d="M142.131,53.624l2.684,4.03c-4.985,7.083-11.854,15.764-16.778,22.792l-2.686-4.028
						C130.274,69.389,137.144,60.706,142.131,53.624"/>
				</g>
			</g>
		</g>
	</g>
</g>
<g enable-background="new    ">
	<g>
		<g>
			<g>
				<defs>
					<path id="SVGID_43_" d="M127.958,80.971l-2.686-4.029c-0.079-0.116-0.058-0.289,0.076-0.523l2.686,4.03
						C127.9,80.684,127.879,80.854,127.958,80.971z"/>
				</defs>
				<clipPath id="SVGID_44_">
					<use xlink:href="#SVGID_43_"  overflow="visible"/>
				</clipPath>
				<g clip-path="url(#SVGID_44_)" enable-background="new    ">
					<path fill="#767273" d="M125.351,76.416l2.686,4.029c-0.136,0.238-0.155,0.408-0.076,0.524l-2.686-4.028
						C125.196,76.823,125.216,76.652,125.351,76.416"/>
				</g>
			</g>
		</g>
	</g>
</g>
<g enable-background="new    ">
	<g>
		<g>
			<g>
				<defs>
					<path id="SVGID_45_" d="M97.963,107.393c-0.896-1.344-1.79-2.688-2.686-4.031c0.11,0.166,0.312,0.287,0.602,0.308l2.684,4.03
						C98.273,107.678,98.073,107.557,97.963,107.393z"/>
				</defs>
				<clipPath id="SVGID_46_">
					<use xlink:href="#SVGID_45_"  overflow="visible"/>
				</clipPath>
				<g clip-path="url(#SVGID_46_)" enable-background="new    ">
					<path fill="#767273" d="M95.88,103.667l2.684,4.03c-0.291-0.021-0.488-0.141-0.6-0.307l-2.686-4.029
						C95.39,103.525,95.589,103.646,95.88,103.667"/>
				</g>
			</g>
		</g>
	</g>
</g>
<g>
	<polygon fill="#777474" points="123.544,80.416 126.228,84.445 117.372,97.001 114.688,92.971 	"/>
</g>
<g>
	<polygon fill="#787475" points="105.785,102.273 108.468,106.305 98.563,107.697 95.88,103.667 	"/>
</g>
<g enable-background="new    ">
	<g>
		<g>
			<g>
				<defs>
					<path id="SVGID_47_" d="M117.507,101.939c-0.896-1.345-1.789-2.688-2.685-4.029c-1.009-1.514-1.221-3.242-0.136-4.939
						l2.686,4.03C116.287,98.698,116.499,100.426,117.507,101.939z"/>
				</defs>
				<clipPath id="SVGID_48_">
					<use xlink:href="#SVGID_47_"  overflow="visible"/>
				</clipPath>
				<g clip-path="url(#SVGID_48_)" enable-background="new    ">
					<path fill="#767273" d="M114.688,92.971l2.686,4.03c-1.085,1.697-0.873,3.425,0.135,4.938l-2.684-4.029
						C113.815,96.396,113.604,94.668,114.688,92.971"/>
				</g>
			</g>
		</g>
	</g>
</g>
<g>
	<polygon fill="#787475" points="143.763,80.541 146.447,84.57 126.228,84.445 123.544,80.416 	"/>
</g>
<g enable-background="new    ">
	<g>
		<g>
			<g>
				<defs>
					<path id="SVGID_49_" d="M121.927,103.964l2.684,4.029c-0.107-0.045-2.175-0.907-6.868-1.349
						c-1.26-0.121-3.518-0.504-6.271-0.504c-0.948,0-1.955,0.045-3.001,0.161l-2.684-4.028c1.046-0.117,2.053-0.164,3.001-0.164
						c2.756,0,5.014,0.386,6.271,0.506C119.752,103.057,121.818,103.918,121.927,103.964z"/>
				</defs>
				<clipPath id="SVGID_50_">
					<use xlink:href="#SVGID_49_"  overflow="visible"/>
				</clipPath>
				<g clip-path="url(#SVGID_50_)" enable-background="new    ">
					<path fill="#767273" d="M121.927,103.964l2.684,4.029c-0.107-0.045-2.175-0.907-6.868-1.349
						c-1.26-0.121-3.518-0.504-6.271-0.504c-0.948,0-1.955,0.045-3.001,0.161l-2.684-4.028c1.046-0.117,2.053-0.164,3.001-0.164
						c2.756,0,5.014,0.386,6.271,0.506C119.752,103.057,121.818,103.918,121.927,103.964"/>
				</g>
			</g>
		</g>
	</g>
</g>
<g enable-background="new    ">
	<g>
		<g>
			<g>
				<defs>
					<path id="SVGID_51_" d="M122.651,102.523l2.686,4.027c0.33,0.494,0.188,1.487-0.461,1.487c-0.08,0-0.167-0.017-0.265-0.047
						l-2.684-4.029c0.096,0.032,0.183,0.047,0.263,0.047C122.841,104.011,122.981,103.018,122.651,102.523z"/>
				</defs>
				<clipPath id="SVGID_52_">
					<use xlink:href="#SVGID_51_"  overflow="visible"/>
				</clipPath>
				<g clip-path="url(#SVGID_52_)" enable-background="new    ">
					<path fill="#767273" d="M122.651,102.523l2.686,4.027c0.33,0.494,0.188,1.487-0.461,1.487c-0.08,0-0.167-0.017-0.265-0.047
						l-2.684-4.029c0.096,0.032,0.183,0.047,0.263,0.047C122.841,104.011,122.981,103.018,122.651,102.523"/>
				</g>
			</g>
		</g>
	</g>
</g>
<g>
	<polygon fill="#787575" points="156.964,38.515 159.647,42.545 160.974,98.809 158.291,94.777 	"/>
</g>
<g enable-background="new    ">
	<g>
		<g>
			<g>
				<defs>
					<path id="SVGID_53_" d="M162.271,102.727c-0.895-1.344-1.789-2.688-2.684-4.031c-0.695-1.043-1.151-2.323-1.297-3.918
						l2.684,4.031C161.12,100.4,161.577,101.684,162.271,102.727z"/>
				</defs>
				<clipPath id="SVGID_54_">
					<use xlink:href="#SVGID_53_"  overflow="visible"/>
				</clipPath>
				<g clip-path="url(#SVGID_54_)" enable-background="new    ">
					<path fill="#767273" d="M158.291,94.777l2.684,4.031c0.146,1.592,0.604,2.875,1.297,3.918l-2.684-4.031
						C158.893,97.652,158.437,96.371,158.291,94.777"/>
				</g>
			</g>
		</g>
	</g>
</g>
<g enable-background="new    ">
	<g>
		<g>
			<g>
				<defs>
					<path id="SVGID_55_" d="M138.215,107.336l-2.686-4.029c0.149,0.227,0.392,0.267,0.637,0.252
						c9.328-0.412,8.237-0.449,10.542-0.69c1.84-0.195,3.152-0.283,4.289-0.283c1.313,0,2.387,0.117,3.761,0.317
						c5.872,0.873,10.785,0.949,11.044,0.953l2.684,4.029c-0.259-0.004-5.172-0.08-11.044-0.951
						c-1.374-0.203-2.446-0.319-3.761-0.319c-1.135,0-2.449,0.088-4.289,0.282c-2.303,0.242-1.215,0.278-10.542,0.692
						C138.605,107.602,138.365,107.561,138.215,107.336z"/>
				</defs>
				<clipPath id="SVGID_56_">
					<use xlink:href="#SVGID_55_"  overflow="visible"/>
				</clipPath>
				<g clip-path="url(#SVGID_56_)" enable-background="new    ">
					<path fill="#767273" d="M165.803,103.855l2.684,4.027c-0.259-0.004-5.172-0.078-11.044-0.951
						c-1.374-0.201-2.446-0.32-3.761-0.32c-1.135,0-2.449,0.089-4.289,0.285c-2.303,0.242-1.215,0.276-10.542,0.69
						c-0.245,0.013-0.483-0.026-0.635-0.253l-2.686-4.027c0.149,0.225,0.392,0.264,0.637,0.252
						c9.328-0.414,8.237-0.449,10.542-0.692c1.84-0.195,3.152-0.283,4.289-0.283c1.313,0,2.387,0.117,3.761,0.319
						C160.631,103.773,165.544,103.852,165.803,103.855"/>
				</g>
			</g>
		</g>
	</g>
</g>
<g enable-background="new    ">
	<g>
		<g>
			<g>
				<defs>
					<path id="SVGID_57_" d="M166.079,102.814c0.895,1.344,1.789,2.688,2.684,4.029c0.263,0.396,0.04,0.937-0.276,1.039
						l-2.684-4.027C166.119,103.75,166.342,103.21,166.079,102.814z"/>
				</defs>
				<clipPath id="SVGID_58_">
					<use xlink:href="#SVGID_57_"  overflow="visible"/>
				</clipPath>
				<g clip-path="url(#SVGID_58_)" enable-background="new    ">
					<path fill="#767273" d="M166.079,102.814l2.684,4.029c0.263,0.396,0.04,0.937-0.276,1.039l-2.684-4.027
						C166.119,103.75,166.342,103.21,166.079,102.814"/>
				</g>
			</g>
		</g>
	</g>
</g>
<g>
	<path fill="#E2E2E2" d="M165.868,102.605c0.557,0.377,0.313,1.123-0.065,1.25c-0.259-0.004-5.172-0.082-11.044-0.953
		c-1.374-0.202-2.448-0.319-3.761-0.319c-1.137,0-2.449,0.088-4.289,0.283c-2.305,0.243-1.215,0.278-10.542,0.692
		c-0.354,0.018-0.699-0.074-0.773-0.676c0.083-0.691,1.126-1.023,1.459-1.113c3.728-1.033,5.564-2.902,6.382-7.486
		c0.883-5.042,0.646-9.329,0.528-13.743l-20.219-0.125l-8.855,12.556c-2.625,4.107,2.341,8.396,7.817,9.394
		c0.502,0.389,0.417,1.646-0.315,1.646c-0.08,0-0.167-0.015-0.263-0.047c-0.109-0.046-2.175-0.908-6.87-1.349
		c-1.257-0.12-3.516-0.505-6.271-0.505c-0.948,0-1.955,0.046-3.001,0.162l-9.905,1.395c-0.938-0.063-0.936-1.178,0.002-1.43
		c4.786-0.62,10.521-4.17,13.886-8.951l40.29-56.2c0.665-0.965,2.088-1.527,3.472-1.527c1.733,0,3.402,0.881,3.436,2.956
		l1.327,56.263C158.723,99.496,161.885,101.491,165.868,102.605z M138.054,77.128c2.051,0,3.98,0.011,5.419,0.042l-0.533-23.42
		c-0.102-0.304-0.237-0.461-0.395-0.461c-0.129,0-0.271,0.11-0.415,0.335c-4.987,7.082-11.856,15.765-16.78,22.792
		c-0.314,0.557-0.001,0.746,0.745,0.746c0.119,0.01,0.523,0.014,1.139,0.014c1.061,0,2.743-0.011,4.671-0.021
		C133.831,77.141,136.003,77.128,138.054,77.128"/>
</g>
<g enable-background="new    ">
	<g>
		<g>
			<g>
				<defs>
					<path id="SVGID_59_" d="M371.741,37.11c0.896,1.343,1.789,2.687,2.686,4.03c0.229,0.344,0.302,0.744,0.142,1.207l-2.684-4.03
						C372.045,37.854,371.973,37.455,371.741,37.11z"/>
				</defs>
				<clipPath id="SVGID_60_">
					<use xlink:href="#SVGID_59_"  overflow="visible"/>
				</clipPath>
				<g clip-path="url(#SVGID_60_)" enable-background="new    ">
					<path fill="#767273" d="M371.741,37.11l2.686,4.03c0.229,0.344,0.302,0.744,0.142,1.207l-2.684-4.03
						C372.045,37.854,371.973,37.455,371.741,37.11"/>
				</g>
			</g>
		</g>
	</g>
</g>
<g>
	<polygon fill="#787475" points="371.885,38.316 374.568,42.347 370.075,53.796 367.394,49.767 	"/>
</g>
<g enable-background="new    ">
	<g>
		<g>
			<g>
				<defs>
					<path id="SVGID_61_" d="M367.607,55.038c-0.895-1.343-1.789-2.687-2.684-4.03c0.288,0.433,0.606,0.631,0.925,0.631
						c0.599,0,1.188-0.707,1.545-1.873l2.684,4.03c-0.354,1.167-0.944,1.873-1.545,1.873
						C368.216,55.669,367.896,55.471,367.607,55.038z"/>
				</defs>
				<clipPath id="SVGID_62_">
					<use xlink:href="#SVGID_61_"  overflow="visible"/>
				</clipPath>
				<g clip-path="url(#SVGID_62_)" enable-background="new    ">
					<path fill="#767273" d="M367.394,49.767l2.684,4.03c-0.354,1.167-0.944,1.873-1.545,1.873c-0.314,0-0.637-0.198-0.925-0.631
						l-2.684-4.03c0.288,0.433,0.606,0.631,0.925,0.631C366.447,51.64,367.036,50.933,367.394,49.767"/>
				</g>
			</g>
		</g>
	</g>
</g>
<g enable-background="new    ">
	<g>
		<g>
			<g>
				<defs>
					<path id="SVGID_63_" d="M340.395,78.135l-2.684-4.029c0.203,0.309,0.853,0.59,1.733,0.685l2.686,4.028
						C341.245,78.725,340.6,78.441,340.395,78.135z"/>
				</defs>
				<clipPath id="SVGID_64_">
					<use xlink:href="#SVGID_63_"  overflow="visible"/>
				</clipPath>
				<g clip-path="url(#SVGID_64_)" enable-background="new    ">
					<path fill="#767273" d="M339.446,74.789l2.686,4.029c-0.885-0.094-1.53-0.375-1.735-0.685l-2.684-4.028
						C337.914,74.413,338.563,74.693,339.446,74.789"/>
				</g>
			</g>
		</g>
	</g>
</g>
<g enable-background="new    ">
	<g>
		<g>
			<g>
				<defs>
					<path id="SVGID_65_" d="M343.603,76.589l2.684,4.03c-0.775-1.167-2.176-1.434-4.154-1.801l-2.686-4.03
						C341.427,75.155,342.823,75.422,343.603,76.589z"/>
				</defs>
				<clipPath id="SVGID_66_">
					<use xlink:href="#SVGID_65_"  overflow="visible"/>
				</clipPath>
				<g clip-path="url(#SVGID_66_)" enable-background="new    ">
					<path fill="#767273" d="M343.603,76.589l2.684,4.03c-0.775-1.167-2.176-1.434-4.154-1.801l-2.686-4.03
						C341.427,75.155,342.823,75.422,343.603,76.589"/>
				</g>
			</g>
		</g>
	</g>
</g>
<g enable-background="new    ">
	<g>
		<g>
			<g>
				<defs>
					<path id="SVGID_67_" d="M362.73,39.01c0.896,1.343,1.788,2.688,2.684,4.03c-0.309-0.463-0.703-0.754-1.216-0.783
						c-0.644-0.035-1.289-0.051-1.933-0.051c-4.078,0-8.127,0.673-11.734,1.822c-13.741,4.386-22.453,11.881-28.196,24.68
						c-5.24,11.489-3.179,23.847,0.346,29.136l-2.686-4.029c-3.521-5.291-5.586-17.646-0.345-29.137
						c5.744-12.798,14.456-20.294,28.197-24.68c3.605-1.149,7.656-1.822,11.732-1.822c0.646,0,1.289,0.017,1.935,0.051
						C362.025,38.256,362.422,38.547,362.73,39.01z"/>
				</defs>
				<clipPath id="SVGID_68_">
					<use xlink:href="#SVGID_67_"  overflow="visible"/>
				</clipPath>
				<g clip-path="url(#SVGID_68_)" enable-background="new    ">
					<path fill="#767273" d="M362.73,39.01l2.684,4.03c-0.309-0.463-0.703-0.754-1.216-0.783c-0.644-0.035-1.289-0.051-1.933-0.051
						c-4.078,0-8.127,0.673-11.734,1.822c-13.741,4.386-22.453,11.881-28.196,24.68c-5.24,11.489-3.179,23.847,0.346,29.136
						l-2.686-4.029c-3.521-5.291-5.586-17.646-0.345-29.137c5.744-12.798,14.456-20.294,28.197-24.68
						c3.605-1.149,7.656-1.822,11.732-1.822c0.646,0,1.289,0.017,1.935,0.051C362.025,38.256,362.422,38.547,362.73,39.01"/>
				</g>
			</g>
		</g>
	</g>
</g>
<g enable-background="new    ">
	<g>
		<g>
			<g>
				<defs>
					<path id="SVGID_69_" d="M369.48,74.16l2.684,4.029c-4.544,0.684-6.353,1.556-6.785,3.234l-2.686-4.029
						C363.128,75.714,364.937,74.843,369.48,74.16z"/>
				</defs>
				<clipPath id="SVGID_70_">
					<use xlink:href="#SVGID_69_"  overflow="visible"/>
				</clipPath>
				<g clip-path="url(#SVGID_70_)" enable-background="new    ">
					<path fill="#767273" d="M369.48,74.16l2.684,4.029c-4.544,0.684-6.353,1.556-6.785,3.234l-2.686-4.029
						C363.128,75.714,364.937,74.843,369.48,74.16"/>
				</g>
			</g>
		</g>
	</g>
</g>
<g enable-background="new    ">
	<g>
		<g>
			<g>
				<defs>
					<path id="SVGID_71_" d="M370.022,73.456l2.684,4.03c0.154,0.23-0.039,0.455-0.542,0.703l-2.684-4.029
						C369.983,73.912,370.177,73.688,370.022,73.456z"/>
				</defs>
				<clipPath id="SVGID_72_">
					<use xlink:href="#SVGID_71_"  overflow="visible"/>
				</clipPath>
				<g clip-path="url(#SVGID_72_)" enable-background="new    ">
					<path fill="#767273" d="M370.022,73.456l2.684,4.03c0.154,0.23-0.039,0.455-0.542,0.703l-2.684-4.029
						C369.983,73.912,370.177,73.688,370.022,73.456"/>
				</g>
			</g>
		</g>
	</g>
</g>
<g enable-background="new    ">
	<g>
		<g>
			<g>
				<defs>
					<path id="SVGID_73_" d="M306.28,95.891c-0.894-1.344-1.789-2.688-2.684-4.031c2.225,3.341,5.281,6.365,9.241,8.787
						c3.794,2.297,9.688,3.182,15.825,3.182c7.647,0,15.681-1.371,20.514-3.092l2.684,4.029c-4.833,1.721-12.864,3.092-20.512,3.092
						c-6.142,0-12.033-0.883-15.827-3.182C311.562,102.255,308.505,99.229,306.28,95.891z"/>
				</defs>
				<clipPath id="SVGID_74_">
					<use xlink:href="#SVGID_73_"  overflow="visible"/>
				</clipPath>
				<g clip-path="url(#SVGID_74_)" enable-background="new    ">
					<path fill="#767273" d="M349.177,100.736l2.684,4.029c-4.833,1.721-12.864,3.092-20.512,3.092
						c-6.14,0-12.033-0.883-15.827-3.183c-3.96-2.421-7.017-5.444-9.241-8.784l-2.684-4.031c2.225,3.34,5.281,6.365,9.241,8.787
						c3.794,2.297,9.688,3.181,15.825,3.181C336.313,103.827,344.344,102.456,349.177,100.736"/>
				</g>
			</g>
		</g>
	</g>
</g>
<g>
	<path fill="#E2E2E2" d="M359.153,34.66c3.123,0,6.187,0.259,9.13,0.808c1.87,0.377,4.162,1.231,3.604,2.849l-4.491,11.45
		c-0.355,1.167-0.946,1.873-1.545,1.873c-0.831,0-1.679-1.363-1.94-4.749c-0.146-1.852,0.151-8.521-2.394-8.664
		c-0.646-0.035-1.289-0.051-1.935-0.051c-4.076,0-8.127,0.673-11.732,1.822c-13.741,4.386-22.453,11.881-28.197,24.68
		c-5.617,12.313-2.845,25.624,1.123,30.163c2.703,3.093,9.023,5.228,13.879,5.228c2.854,0,5.2-0.736,6.012-2.449
		c2.63-6.318,3.903-14.066,3.658-17.607c0.008-4.296-1.675-4.629-4.876-5.222c-2.245-0.239-2.965-1.692,1.229-1.692
		c0.223,0,0.459,0.004,0.71,0.014c1.345-0.008,2.656-0.012,3.944-0.012c2.952,0,5.78,0.018,8.594,0.028
		c2.641,0.015,5.265,0.026,7.964,0.026c2.469,0,5-0.012,7.66-0.045c0.744,0.369,0.682,0.684-0.065,1.053
		c-4.544,0.683-6.353,1.554-6.787,3.234c-1.756,5.969-3.333,12.502-6.178,18.623c-1.012,2.192-5.783,4.278-7.339,4.72
		c-4.833,1.72-12.864,3.091-20.514,3.091c-6.14,0-12.031-0.885-15.825-3.182c-14.23-8.699-16.791-25.191-10.979-36.066
		C310.477,48.396,336.44,34.66,359.153,34.66z"/>
</g>
<g enable-background="new    ">
	<g>
		<g>
			<g>
				<defs>
					<path id="SVGID_75_" d="M362.693,77.395l2.686,4.03c-1.758,5.968-3.333,12.502-6.18,18.622
						c-1.012,2.193-5.782,4.279-7.339,4.719l-2.684-4.029c1.556-0.439,6.327-2.524,7.339-4.719
						C359.36,89.896,360.938,83.363,362.693,77.395z"/>
				</defs>
				<clipPath id="SVGID_76_">
					<use xlink:href="#SVGID_75_"  overflow="visible"/>
				</clipPath>
				<g clip-path="url(#SVGID_76_)" enable-background="new    ">
					<path fill="#767273" d="M362.693,77.395l2.686,4.03c-1.758,5.968-3.333,12.502-6.18,18.622
						c-1.012,2.193-5.782,4.279-7.339,4.719l-2.684-4.029c1.556-0.439,6.327-2.524,7.339-4.719
						C359.36,89.896,360.938,83.363,362.693,77.395"/>
				</g>
			</g>
		</g>
	</g>
</g>
<g enable-background="new    ">
	<g>
		<g>
			<g>
				<defs>
					<path id="SVGID_77_" d="M416.156,37.003l2.686,4.03c0.284,0.426,0.455,0.96,0.465,1.611l-2.686-4.03
						C416.612,37.963,416.441,37.429,416.156,37.003z"/>
				</defs>
				<clipPath id="SVGID_78_">
					<use xlink:href="#SVGID_77_"  overflow="visible"/>
				</clipPath>
				<g clip-path="url(#SVGID_78_)" enable-background="new    ">
					<path fill="#767273" d="M416.156,37.003l2.686,4.03c0.284,0.426,0.455,0.96,0.465,1.611l-2.686-4.03
						C416.612,37.963,416.441,37.429,416.156,37.003"/>
				</g>
			</g>
		</g>
	</g>
</g>
<g enable-background="new    ">
	<g>
		<g>
			<g>
				<defs>
					<path id="SVGID_79_" d="M402.469,53.559l2.684,4.03c-0.079-0.119-0.171-0.18-0.268-0.18c-0.13,0-0.271,0.109-0.411,0.334
						l-2.686-4.03c0.142-0.225,0.281-0.334,0.411-0.334C402.298,53.379,402.39,53.439,402.469,53.559z"/>
				</defs>
				<clipPath id="SVGID_80_">
					<use xlink:href="#SVGID_79_"  overflow="visible"/>
				</clipPath>
				<g clip-path="url(#SVGID_80_)" enable-background="new    ">
					<path fill="#767273" d="M402.469,53.559l2.684,4.03c-0.079-0.119-0.171-0.18-0.268-0.18c-0.13,0-0.271,0.109-0.411,0.334
						l-2.686-4.03c0.142-0.225,0.281-0.334,0.411-0.334C402.298,53.379,402.39,53.439,402.469,53.559"/>
				</g>
			</g>
		</g>
	</g>
</g>
<g enable-background="new    ">
	<g>
		<g>
			<g>
				<defs>
					<path id="SVGID_81_" d="M401.788,53.713l2.686,4.03c-4.996,7.091-11.856,15.772-16.79,22.792L385,76.506
						C389.934,69.486,396.794,60.805,401.788,53.713z"/>
				</defs>
				<clipPath id="SVGID_82_">
					<use xlink:href="#SVGID_81_"  overflow="visible"/>
				</clipPath>
				<g clip-path="url(#SVGID_82_)" enable-background="new    ">
					<path fill="#767273" d="M401.788,53.713l2.686,4.03c-4.996,7.091-11.856,15.772-16.79,22.792L385,76.506
						C389.934,69.486,396.794,60.805,401.788,53.713"/>
				</g>
			</g>
		</g>
	</g>
</g>
<g enable-background="new    ">
	<g>
		<g>
			<g>
				<defs>
					<path id="SVGID_83_" d="M387.611,81.061l-2.684-4.028c-0.078-0.118-0.061-0.288,0.07-0.525l2.686,4.03
						C387.553,80.773,387.531,80.943,387.611,81.061z"/>
				</defs>
				<clipPath id="SVGID_84_">
					<use xlink:href="#SVGID_83_"  overflow="visible"/>
				</clipPath>
				<g clip-path="url(#SVGID_84_)" enable-background="new    ">
					<path fill="#767273" d="M385,76.506l2.684,4.03c-0.131,0.237-0.15,0.407-0.072,0.524l-2.684-4.029
						C384.85,76.914,384.867,76.743,385,76.506"/>
				</g>
			</g>
		</g>
	</g>
</g>
<g enable-background="new    ">
	<g>
		<g>
			<g>
				<defs>
					<path id="SVGID_85_" d="M357.618,107.482l-2.684-4.028c0.109,0.163,0.307,0.282,0.593,0.303l2.686,4.03
						C357.927,107.768,357.729,107.646,357.618,107.482z"/>
				</defs>
				<clipPath id="SVGID_86_">
					<use xlink:href="#SVGID_85_"  overflow="visible"/>
				</clipPath>
				<g clip-path="url(#SVGID_86_)" enable-background="new    ">
					<path fill="#767273" d="M355.529,103.757l2.686,4.03c-0.286-0.02-0.483-0.141-0.595-0.305l-2.684-4.028
						C355.046,103.617,355.241,103.736,355.529,103.757"/>
				</g>
			</g>
		</g>
	</g>
</g>
<g>
	<polygon fill="#777474" points="383.194,80.516 385.878,84.544 377.022,97.102 374.339,93.07 	"/>
</g>
<g>
	<polygon fill="#787475" points="365.444,102.363 368.128,106.395 358.213,107.787 355.529,103.757 	"/>
</g>
<g enable-background="new    ">
	<g>
		<g>
			<g>
				<defs>
					<path id="SVGID_87_" d="M377.158,102.025c-0.895-1.342-1.789-2.687-2.684-4.028c-1.006-1.511-1.218-3.235-0.138-4.927
						l2.684,4.029C375.942,98.792,376.154,100.516,377.158,102.025z"/>
				</defs>
				<clipPath id="SVGID_88_">
					<use xlink:href="#SVGID_87_"  overflow="visible"/>
				</clipPath>
				<g clip-path="url(#SVGID_88_)" enable-background="new    ">
					<path fill="#767273" d="M374.339,93.07l2.684,4.029c-1.08,1.69-0.868,3.416,0.138,4.926l-2.684-4.028
						C373.471,96.486,373.259,94.762,374.339,93.07"/>
				</g>
			</g>
		</g>
	</g>
</g>
<g>
	<polygon fill="#787475" points="403.412,80.631 406.098,84.661 385.878,84.544 383.194,80.516 	"/>
</g>
<g enable-background="new    ">
	<g>
		<g>
			<g>
				<defs>
					<path id="SVGID_89_" d="M381.574,104.055l2.686,4.028c-0.108-0.045-2.174-0.897-6.859-1.349
						c-1.258-0.12-3.517-0.504-6.271-0.504c-0.948,0-1.956,0.045-3.001,0.162l-2.686-4.029c1.045-0.117,2.053-0.163,3.001-0.163
						c2.755,0,5.016,0.385,6.271,0.505C379.402,103.154,381.468,104.009,381.574,104.055z"/>
				</defs>
				<clipPath id="SVGID_90_">
					<use xlink:href="#SVGID_89_"  overflow="visible"/>
				</clipPath>
				<g clip-path="url(#SVGID_90_)" enable-background="new    ">
					<path fill="#767273" d="M381.574,104.055l2.686,4.028c-0.108-0.045-2.174-0.897-6.859-1.349
						c-1.258-0.12-3.517-0.504-6.271-0.504c-0.948,0-1.956,0.045-3.001,0.162l-2.686-4.029c1.045-0.117,2.053-0.163,3.001-0.163
						c2.755,0,5.016,0.385,6.271,0.505C379.402,103.154,381.468,104.009,381.574,104.055"/>
				</g>
			</g>
		</g>
	</g>
</g>
<g enable-background="new    ">
	<g>
		<g>
			<g>
				<defs>
					<path id="SVGID_91_" d="M382.308,102.611c0.895,1.343,1.789,2.687,2.684,4.029c0.331,0.498,0.188,1.488-0.466,1.488
						c-0.081,0-0.169-0.015-0.266-0.048l-2.686-4.029c0.099,0.033,0.187,0.05,0.268,0.05
						C382.493,104.102,382.639,103.107,382.308,102.611z"/>
				</defs>
				<clipPath id="SVGID_92_">
					<use xlink:href="#SVGID_91_"  overflow="visible"/>
				</clipPath>
				<g clip-path="url(#SVGID_92_)" enable-background="new    ">
					<path fill="#767273" d="M382.308,102.611l2.684,4.029c0.331,0.498,0.188,1.488-0.466,1.488c-0.081,0-0.169-0.015-0.266-0.048
						l-2.686-4.029c0.099,0.033,0.187,0.05,0.268,0.05C382.493,104.102,382.639,103.107,382.308,102.611"/>
				</g>
			</g>
		</g>
	</g>
</g>
<g>
	<polygon fill="#787575" points="416.62,38.614 419.306,42.644 420.633,98.896 417.948,94.868 	"/>
</g>
<g enable-background="new    ">
	<g>
		<g>
			<g>
				<defs>
					<path id="SVGID_93_" d="M421.927,102.82l-2.686-4.03c-0.692-1.043-1.149-2.327-1.294-3.923l2.686,4.029
						C420.775,100.494,421.232,101.777,421.927,102.82z"/>
				</defs>
				<clipPath id="SVGID_94_">
					<use xlink:href="#SVGID_93_"  overflow="visible"/>
				</clipPath>
				<g clip-path="url(#SVGID_94_)" enable-background="new    ">
					<path fill="#767273" d="M417.948,94.868l2.686,4.03c0.143,1.596,0.6,2.879,1.294,3.922l-2.686-4.029
						C418.549,97.747,418.092,96.464,417.948,94.868"/>
				</g>
			</g>
		</g>
	</g>
</g>
<g enable-background="new    ">
	<g>
		<g>
			<g>
				<defs>
					<path id="SVGID_95_" d="M397.875,107.43l-2.686-4.031c0.147,0.225,0.384,0.265,0.624,0.25c9.338-0.412,8.24-0.447,10.553-0.69
						c1.818-0.19,3.121-0.276,4.246-0.276c1.329,0,2.41,0.117,3.806,0.322c5.87,0.862,10.783,0.938,11.043,0.941l2.684,4.029
						c-0.258-0.004-5.171-0.08-11.043-0.94c-1.395-0.205-2.475-0.325-3.804-0.325c-1.125,0-2.43,0.086-4.246,0.277
						c-2.313,0.242-1.215,0.279-10.554,0.693C398.259,107.689,398.022,107.65,397.875,107.43z"/>
				</defs>
				<clipPath id="SVGID_96_">
					<use xlink:href="#SVGID_95_"  overflow="visible"/>
				</clipPath>
				<g clip-path="url(#SVGID_96_)" enable-background="new    ">
					<path fill="#767273" d="M425.461,103.945l2.684,4.029c-0.258-0.006-5.171-0.08-11.043-0.942
						c-1.395-0.205-2.475-0.325-3.804-0.325c-1.125,0-2.43,0.086-4.246,0.279c-2.313,0.242-1.215,0.277-10.554,0.69
						c-0.239,0.013-0.478-0.026-0.623-0.25l-2.686-4.028c0.147,0.223,0.384,0.263,0.624,0.25c9.338-0.414,8.24-0.449,10.553-0.692
						c1.818-0.192,3.121-0.278,4.246-0.278c1.329,0,2.41,0.119,3.806,0.324C420.288,103.864,425.201,103.941,425.461,103.945"/>
				</g>
			</g>
		</g>
	</g>
</g>
<g enable-background="new    ">
	<g>
		<g>
			<g>
				<defs>
					<path id="SVGID_97_" d="M425.738,102.912c0.896,1.343,1.789,2.686,2.686,4.029c0.259,0.39,0.029,0.929-0.277,1.033
						l-2.684-4.029C425.77,103.84,425.995,103.301,425.738,102.912z"/>
				</defs>
				<clipPath id="SVGID_98_">
					<use xlink:href="#SVGID_97_"  overflow="visible"/>
				</clipPath>
				<g clip-path="url(#SVGID_98_)" enable-background="new    ">
					<path fill="#767273" d="M425.738,102.912l2.686,4.029c0.259,0.39,0.029,0.929-0.277,1.033l-2.684-4.029
						C425.77,103.84,425.995,103.301,425.738,102.912"/>
				</g>
			</g>
		</g>
	</g>
</g>
<g>
	<path fill="#E2E2E2" d="M425.527,102.705c0.559,0.368,0.303,1.113-0.064,1.24c-0.26-0.004-5.173-0.081-11.043-0.943
		c-1.396-0.205-2.477-0.324-3.806-0.324c-1.125,0-2.428,0.086-4.246,0.278c-2.313,0.243-1.215,0.278-10.553,0.692
		c-0.349,0.018-0.688-0.074-0.763-0.674c0.082-0.692,1.126-1.018,1.45-1.115c3.732-1.024,5.57-2.902,6.391-7.486
		c0.882-5.033,0.638-9.32,0.521-13.742l-20.22-0.117L374.34,93.07c-2.616,4.1,2.35,8.386,7.823,9.384
		c0.503,0.396,0.411,1.647-0.32,1.647c-0.081,0-0.169-0.016-0.268-0.049c-0.106-0.045-2.174-0.897-6.857-1.349
		c-1.258-0.12-3.519-0.505-6.271-0.505c-0.948,0-1.956,0.046-3.001,0.162l-9.915,1.395c-0.926-0.063-0.924-1.178,0.003-1.43
		c4.795-0.62,10.521-4.161,13.896-8.952l40.29-56.19c0.665-0.969,2.087-1.531,3.47-1.531c1.734,0,3.404,0.884,3.436,2.959
		l1.327,56.254C418.371,99.595,421.544,101.581,425.527,102.705z M397.683,77.229c2.058,0,3.996,0.012,5.438,0.041L402.6,53.839
		c-0.104-0.304-0.243-0.46-0.398-0.46c-0.13,0-0.271,0.109-0.41,0.334c-4.995,7.091-11.855,15.773-16.791,22.792
		c-0.307,0.558-0.001,0.746,0.745,0.746c0.146,0.013,0.72,0.017,1.58,0.017c1.048,0,2.526-0.007,4.194-0.017
		C393.444,77.239,395.622,77.229,397.683,77.229"/>
</g>
<text transform="matrix(1 0 0 1 434.0002 107.333)" opacity="0.78" fill="#231F20" enable-background="new    " font-family="'ArialMT'" font-size="6">TM</text>
<g id="Tick">
	<line fill="none" x1="197.877" y1="-62.544" x2="209.167" y2="-30.833"/>
	<line fill="none" x1="210.546" y1="120.193" x2="143.4" y2="173.167"/>
	<g>
		
			<linearGradient id="SVGID_99_" gradientUnits="userSpaceOnUse" x1="-200.115" y1="-732.0938" x2="-200.115" y2="-681.0928" gradientTransform="matrix(1 0 0 -1 254.9692 -623.6348)">
			<stop  offset="0.0604" style="stop-color:#53B848"/>
			<stop  offset="0.5549" style="stop-color:#65CCEC"/>
			<stop  offset="0.5832" style="stop-color:#61C3E7"/>
			<stop  offset="0.6882" style="stop-color:#55A7D8"/>
			<stop  offset="0.7933" style="stop-color:#4D92CD"/>
			<stop  offset="0.8976" style="stop-color:#4886C6"/>
			<stop  offset="1" style="stop-color:#4682C4"/>
		</linearGradient>
		<polygon fill="url(#SVGID_99_)" stroke="#000000" stroke-width="0.25" points="28.688,57.458 46.854,57.458 81.021,108.459 
			63.021,108.459 		"/>
		
			<linearGradient id="SVGID_100_" gradientUnits="userSpaceOnUse" x1="-190.9846" y1="-732.0459" x2="-110.0266" y2="-635.564" gradientTransform="matrix(1 0 0 -1 254.9692 -623.6348)">
			<stop  offset="0" style="stop-color:#6EBE44"/>
			<stop  offset="0.0011" style="stop-color:#6EBE44"/>
			<stop  offset="0.2454" style="stop-color:#BCDA20"/>
			<stop  offset="0.4194" style="stop-color:#ECEB09"/>
			<stop  offset="0.5055" style="stop-color:#FFF200"/>
			<stop  offset="0.5783" style="stop-color:#FBCA08"/>
			<stop  offset="0.6794" style="stop-color:#F79A11"/>
			<stop  offset="0.7753" style="stop-color:#F47419"/>
			<stop  offset="0.8635" style="stop-color:#F1581F"/>
			<stop  offset="0.9411" style="stop-color:#F04822"/>
			<stop  offset="1" style="stop-color:#EF4223"/>
		</linearGradient>
		<polygon fill="url(#SVGID_100_)" stroke="#000000" stroke-width="0.25" points="127.375,12.292 145.375,12.292 81.208,108.459 
			64.042,108.459 		"/>
	</g>
	<g>
		
			<linearGradient id="SVGID_101_" gradientUnits="userSpaceOnUse" x1="-221.7815" y1="-732.0928" x2="-221.7815" y2="-681.0928" gradientTransform="matrix(1 0 0 -1 254.9692 -623.6348)">
			<stop  offset="0.0604" style="stop-color:#53B848"/>
			<stop  offset="0.5549" style="stop-color:#65CCEC"/>
			<stop  offset="0.5832" style="stop-color:#61C3E7"/>
			<stop  offset="0.6882" style="stop-color:#55A7D8"/>
			<stop  offset="0.7933" style="stop-color:#4D92CD"/>
			<stop  offset="0.8976" style="stop-color:#4886C6"/>
			<stop  offset="1" style="stop-color:#4682C4"/>
		</linearGradient>
		<polygon fill="url(#SVGID_101_)" stroke="#000000" stroke-width="0.25" points="7.021,57.458 25.188,57.458 59.355,108.458 
			41.355,108.458 		"/>
		
			<linearGradient id="SVGID_102_" gradientUnits="userSpaceOnUse" x1="-212.6516" y1="-732.0454" x2="-131.6936" y2="-635.5635" gradientTransform="matrix(1 0 0 -1 254.9692 -623.6348)">
			<stop  offset="0" style="stop-color:#6EBE44"/>
			<stop  offset="0.0011" style="stop-color:#6EBE44"/>
			<stop  offset="0.2454" style="stop-color:#BCDA20"/>
			<stop  offset="0.4194" style="stop-color:#ECEB09"/>
			<stop  offset="0.5055" style="stop-color:#FFF200"/>
			<stop  offset="0.5783" style="stop-color:#FBCA08"/>
			<stop  offset="0.6794" style="stop-color:#F79A11"/>
			<stop  offset="0.7753" style="stop-color:#F47419"/>
			<stop  offset="0.8635" style="stop-color:#F1581F"/>
			<stop  offset="0.9411" style="stop-color:#F04822"/>
			<stop  offset="1" style="stop-color:#EF4223"/>
		</linearGradient>
		<polygon fill="url(#SVGID_102_)" stroke="#000000" stroke-width="0.25" points="105.708,12.291 123.708,12.291 59.542,108.458 
			42.375,108.458 		"/>
	</g>
</g>
</svg>
