<?xml version="1.0" encoding="utf-8"?>
<!-- Generator: Adobe Illustrator 13.0.0, SVG Export Plug-In . SVG Version: 6.00 Build 14948)  -->
<!DOCTYPE svg PUBLIC "-//W3C//DTD SVG 1.1//EN" "http://www.w3.org/Graphics/SVG/1.1/DTD/svg11.dtd">
<svg version="1.1" id="svg101576" xmlns:svg="http://www.w3.org/2000/svg"
	 xmlns="http://www.w3.org/2000/svg" xmlns:xlink="http://www.w3.org/1999/xlink" x="0px" y="0px" width="566.93px"
	 height="78.275px" viewBox="0 0 566.93 78.275" enable-background="new 0 0 566.93 78.275" xml:space="preserve">
<path id="path100608" fill="#FFFFFF" d="M347.885,70.38c0,0.83-0.684,1.578-1.521,1.578h-29.101c-0.85,0-1.528-0.748-1.528-1.578
	V49.358c0-0.832,0.682-1.496,1.528-1.496h29.101c0.84,0,1.521,0.664,1.521,1.496V70.38z M346.62,41.546h-29.622
	c-4.285,0-7.784,3.49-7.784,7.813v21.104c0,4.236,3.499,7.813,7.784,7.813h29.622c4.299,0,7.787-3.574,7.787-7.813V49.358
	C354.407,45.036,350.916,41.546,346.62,41.546"/>
<path id="path100618" fill="#6B6B6B" d="M6.797,9.969c0,0,0,26.759,0,27.175c-0.356,0-6.434,0-6.797,0C0,36.727,0,0.829,0,0.414
	c0.382,0,5.633,0,5.809,0L33.337,27.17c0,0,0-26.341,0-26.756c0.374,0,5.441,0,5.441,0s0.965,0,1.265,0c0,0.416,0,36.313,0,36.729
	c-0.365,0-5.127,0-5.312,0L6.797,9.969"/>
<path id="path100622" fill="#6B6B6B" d="M74.943,9.969c0,0,0,26.759,0,27.175c-0.365,0-6.423,0-6.797,0c0-0.416,0-36.313,0-36.729
	c0.382,0,5.625,0,5.8,0l27.529,26.756c0,0,0-26.341,0-26.756c0.374,0,5.45,0,5.45,0s0.973,0,1.264,0c0,0.416,0,36.313,0,36.729
	c-0.374,0-5.127,0-5.311,0L74.943,9.969"/>
<path id="path100626" fill="#6B6B6B" d="M216.179,9.969c0,0,0,26.759,0,27.175c-0.375,0-6.425,0-6.798,0c0-0.416,0-36.313,0-36.729
	c0.383,0,5.636,0,5.801,0L242.71,27.17c0,0,0-26.341,0-26.756c0.374,0,5.45,0,5.45,0s0.973,0,1.264,0c0,0.416,0,36.313,0,36.729
	c-0.373,0-5.127,0-5.301,0L216.179,9.969"/>
<path id="path100630" fill="#6B6B6B" d="M56.23,0.414c0,0,0.964,0,1.255,0c0,0.416,0,36.313,0,36.729c-0.355,0-6.431,0-6.797,0
	c0-0.416,0-36.313,0-36.729C51.062,0.414,56.23,0.414,56.23,0.414"/>
<path id="path100634" fill="#6B6B6B" d="M154.482,0.414c0,0,0.947,0,1.246,0c0,0.333,0,5.983,0,6.315c-0.397,0-16.387,0-16.387,0
	s0,29.997,0,30.413c-0.365,0-6.696,0-7.063,0c0-0.416,0-30.413,0-30.413s-15.985,0-16.386,0c0-0.332,0-5.983,0-6.315
	C116.299,0.414,154.482,0.414,154.482,0.414"/>
<path id="path100638" fill="#6B6B6B" d="M198.023,0.414c0,0,0.979,0,1.271,0c0,0.333,0,5.983,0,6.315c-0.392,0-29.134,0-29.134,0
	v8.226c0,0,22.152,0,22.535,0c0,0.416,0,5.9,0,6.316c-0.383,0-22.535,0-22.535,0v9.555c0,0,28.742,0,29.134,0c0,0.333,0,5.9,0,6.315
	c-0.392,0-35.475,0-35.862,0c0-0.416,0-36.313,0-36.729C163.821,0.414,198.023,0.414,198.023,0.414"/>
<path id="path100642" fill="#6B6B6B" d="M287.216,30.827h-20.872V6.731h20.873c6.531,0,8.852,6.479,8.852,12.049
	C296.066,24.262,293.749,30.827,287.216,30.827z M298.369,5.817c-2.659-3.573-6.591-5.401-11.345-5.401c0,0-26.838,0-27.237,0
	c0,0.416,0,36.313,0,36.729c0.397,0,27.237,0,27.237,0c4.754,0,8.686-1.911,11.345-5.401c2.491-3.24,3.813-7.728,3.813-12.962
	C302.181,13.543,300.861,9.057,298.369,5.817"/>
<path id="path100646" fill="#6B6B6B" d="M347.885,29.331c0,0.748-0.684,1.496-1.521,1.496h-29.101c-0.85,0-1.528-0.748-1.528-1.496
	V8.226c0-0.831,0.682-1.496,1.528-1.496h29.101c0.84,0,1.521,0.665,1.521,1.496V29.331z M346.62,0.414h-29.622
	c-4.285,0-7.784,3.49-7.784,7.813v21.104c0,4.321,3.499,7.813,7.784,7.813h29.622c4.299,0,7.787-3.49,7.787-7.813V8.226
	C354.407,3.906,350.916,0.414,346.62,0.414"/>
<path id="path100656" fill="#6B6B6B" d="M470.017,62.737c7.045,2.824,21.928,5.064,33.545,5.064c12.713,0,17.973-4.318,17.973-9.805
	c0-4.984-4.887-7.811-18.92-12.963c-18.771-6.896-32.541-12.38-32.541-24.762c0-12.713,16.57-20.274,41.822-20.274
	c13.562,0,18.215,0.831,26.822,2.41l0.064,12.131c-8.459-1.578-15.955-4.321-27.596-4.321c-12.479,0-17.799,3.988-17.799,8.063
	c0,5.9,8.189,8.725,22.561,13.876c20,7.146,31.127,12.629,31.127,24.68c0,12.463-13.936,21.438-45.359,21.438
	c-12.904,0-21.807-0.832-31.699-2.492V62.737"/>
<path id="path100660" fill="#6B6B6B" d="M403.125,10.719h-14.954V67.39h14.954c22.962,0,37.442-9.891,37.442-28.252
	C440.568,20.773,426.084,10.719,403.125,10.719z M443.269,72.624c-7.396,3.324-21.391,5.484-33.621,5.484H362.9V0.165h46.748
	c12.23,0,26.226,2.16,33.637,5.484c18.01,8.143,23.873,21.188,23.873,33.484C467.157,51.436,461.342,64.481,443.269,72.624"/>
<path id="path100678" fill="#6B6B6B" d="M551.773,66.475h-3v-1.08h7.305v1.08h-3.016V75.2h-1.289V66.475"/>
<path id="path100682" fill="#6B6B6B" d="M565.443,70.878c-0.076-1.328-0.158-2.988-0.158-4.234h-0.031
	c-0.352,1.162-0.748,2.406-1.246,3.736l-1.736,4.82h-0.965l-1.611-4.736c-0.465-1.414-0.848-2.658-1.121-3.82h-0.033
	c-0.023,1.246-0.102,2.906-0.184,4.318l-0.268,4.238h-1.215l0.689-9.807h1.621l1.68,4.734c0.406,1.246,0.73,2.326,0.996,3.324h0.025
	c0.266-0.998,0.611-2.078,1.055-3.324l1.754-4.734h1.619l0.615,9.807h-1.254L565.443,70.878"/>
</svg>
