<?xml version="1.0" encoding="utf-8"?>
<!-- Generator: Adobe Illustrator 13.0.0, SVG Export Plug-In . SVG Version: 6.00 Build 14948)  -->
<!DOCTYPE svg PUBLIC "-//W3C//DTD SVG 1.1//EN" "http://www.w3.org/Graphics/SVG/1.1/DTD/svg11.dtd">
<svg version="1.1" id="Ebene_1" xmlns="http://www.w3.org/2000/svg" xmlns:xlink="http://www.w3.org/1999/xlink" x="0px" y="0px"
	 width="566.93px" height="124.23px" viewBox="0 0 566.93 124.23" enable-background="new 0 0 566.93 124.23" xml:space="preserve">
<g id="underneath_1_">
</g>
<g id="BOTTOM_LEFT_LINE">
</g>
<g>
	<g id="Layer_6">
		<line fill="none" x1="29.248" y1="99.123" x2="28.12" y2="98.282"/>
	</g>
	<g id="_x33_D_PART">
		
			<linearGradient id="SVGID_1_" gradientUnits="userSpaceOnUse" x1="-222.1536" y1="1284.2859" x2="-141.8273" y2="1270.9236" gradientTransform="matrix(1 0 0 1 246.5645 -1192.8398)">
			<stop  offset="0.0368" style="stop-color:#FFFFFF"/>
			<stop  offset="0.8957" style="stop-color:#898CBF"/>
		</linearGradient>
		<polygon fill="url(#SVGID_1_)" points="89.451,62.438 89.451,82.608 53.699,103.224 18.222,82.608 16.628,83.691 53.699,105.427 
			91.065,83.824 91.065,61.505 		"/>
	</g>
	<g id="black_line_thing">
		<polygon fill="#7A7EAE" points="89.451,82.52 91.065,83.685 91.065,83.824 90.963,83.9 89.308,82.69 89.451,82.608 		"/>
	</g>
	<g id="dark_purple_top_line">
		
			<linearGradient id="SVGID_2_" gradientUnits="userSpaceOnUse" x1="-218.1082" y1="-650.5774" x2="-192.5203" y2="-650.5774" gradientTransform="matrix(1 0 0 -1 246.5244 -595.4243)">
			<stop  offset="0" style="stop-color:#6E70A9"/>
			<stop  offset="0.9693" style="stop-color:#514A8E"/>
		</linearGradient>
		<polygon fill="url(#SVGID_2_)" points="54.004,62.205 28.814,47.455 28.416,47.853 53.699,62.851 		"/>
		
			<linearGradient id="SVGID_3_" gradientUnits="userSpaceOnUse" x1="-192.7126" y1="-657.7332" x2="-192.385" y2="-657.7332" gradientTransform="matrix(1 0 0 -1 246.5244 -595.4243)">
			<stop  offset="0" style="stop-color:#6E70A9"/>
			<stop  offset="0.9693" style="stop-color:#514A8E"/>
		</linearGradient>
		<polygon fill="url(#SVGID_3_)" points="53.922,62.205 54.107,62.205 54.14,62.413 53.813,62.413 		"/>
	</g>
	<g id="top_black_line">
		<polygon fill="#120F22" points="54.004,62.851 54.004,62.205 107.627,31.206 107.785,31.647 		"/>
	</g>
	<g id="LOGO_DARK_LINES">
		<polygon fill="#453D76" points="54.004,124.23 54.363,105.729 91.582,84.28 91.72,61.312 91.065,61.312 91.065,83.824 
			53.699,105.427 53.565,124.23 		"/>
	</g>
	<g id="LOGO">
		
			<linearGradient id="SVGID_4_" gradientUnits="userSpaceOnUse" x1="-182.4846" y1="1259.741" x2="-137.8432" y2="1289.0463" gradientTransform="matrix(1 0 0 1 246.5645 -1192.8398)">
			<stop  offset="0" style="stop-color:#4C5284"/>
			<stop  offset="1" style="stop-color:#8789BC"/>
		</linearGradient>
		<polygon fill="url(#SVGID_4_)" points="54.004,91.212 54.004,62.851 107.785,31.647 107.785,93.197 54.004,124.23 54.004,105.573 
			91.361,84.062 91.361,61.332 78.85,68.566 78.85,76.594 		"/>
	</g>
	<g id="BOTTOM_LAIN_LEFT_LIGHT_LINE">
		
			<linearGradient id="SVGID_5_" gradientUnits="userSpaceOnUse" x1="-193.1057" y1="1316.4148" x2="-193.4167" y2="1296.5105" gradientTransform="matrix(1 0 0 1 246.5645 -1192.8398)">
			<stop  offset="0.1104" style="stop-color:#4C407E"/>
			<stop  offset="0.8896" style="stop-color:#666699"/>
			<stop  offset="1" style="stop-color:#A7B3D9"/>
			<stop  offset="1" style="stop-color:#9BA5CD"/>
		</linearGradient>
		<polyline fill="url(#SVGID_5_)" points="53.402,124.23 53.699,124.23 53.699,105.427 52.642,104.806 53.402,124.23 		"/>
	</g>
	<g id="underneath">
		<polyline fill="#2D2868" points="16.542,40.703 16.771,40.897 16.862,83.532 16.628,83.691 16.486,83.601 16.542,40.703 		"/>
	</g>
	<g id="LEFT_3D_PURPLE_SHADOW">
		<polygon fill="#453D76" points="18.222,82.608 16.628,83.691 16.628,40.755 54.004,19.174 54.004,21.3 18.26,41.987 		"/>
	</g>
	<g id="MAIN_DARK_PURPLE_LINE">
		<polygon fill="#453D76" points="54.004,62.094 54.004,91.212 53.699,91.417 53.699,62.851 53.699,62.028 		"/>
	</g>
	<g id="logo_LEFT_side">
		
			<linearGradient id="SVGID_6_" gradientUnits="userSpaceOnUse" x1="-241.7454" y1="1272.5466" x2="-180.5432" y2="1255.5374" gradientTransform="matrix(1 0 0 1 246.5645 -1192.8398)">
			<stop  offset="0.2331" style="stop-color:#666699"/>
			<stop  offset="0.7239" style="stop-color:#A7B3D9"/>
		</linearGradient>
		<polygon fill="url(#SVGID_6_)" points="28.416,47.853 28.416,76.802 53.699,91.417 53.699,62.851 		"/>
		
			<linearGradient id="SVGID_7_" gradientUnits="userSpaceOnUse" x1="-240.6873" y1="1276.3464" x2="-179.49" y2="1259.3386" gradientTransform="matrix(1 0 0 1 246.5645 -1192.8398)">
			<stop  offset="0.2331" style="stop-color:#666699"/>
			<stop  offset="0.9907" style="stop-color:#A7B3D9"/>
		</linearGradient>
		<polygon fill="url(#SVGID_7_)" points="53.402,123.926 53.402,105.251 16.628,83.691 16.628,40.964 0,31.206 0,93.302 
			53.402,124.23 		"/>
	</g>
	<g id="left_purple_line">
		<rect x="16.343" y="40.755" fill="#2D2868" width="0.285" height="42.938"/>
		<polygon fill="#2D2868" points="16.628,40.755 0.214,30.992 0,31.206 16.486,40.897 		"/>
	</g>
	<g id="BOTTOM_PURPLE_LINE">
		
			<linearGradient id="SVGID_8_" gradientUnits="userSpaceOnUse" x1="-226.9817" y1="1279.2302" x2="-202.6476" y2="1292.2515" gradientTransform="matrix(1 0 0 1 246.5645 -1192.8398)">
			<stop  offset="0" style="stop-color:#6E70A9"/>
			<stop  offset="0.9693" style="stop-color:#514A8E"/>
		</linearGradient>
		<polygon fill="url(#SVGID_8_)" points="53.402,105.251 53.402,105.603 16.343,84.015 16.343,83.691 16.628,83.691 		"/>
	</g>
	<g id="top_middle_light_line">
		
			<linearGradient id="SVGID_9_" gradientUnits="userSpaceOnUse" x1="-190.8342" y1="1215.0701" x2="-175.384" y2="1222.5865" gradientTransform="matrix(1 0 0 1 246.5645 -1192.8398)">
			<stop  offset="0.0368" style="stop-color:#9EA5D3"/>
			<stop  offset="0.9018" style="stop-color:#7675AE"/>
		</linearGradient>
		<polygon fill="url(#SVGID_9_)" points="54.004,19.174 77.901,33.142 77.901,35.231 54.004,21.3 		"/>
	</g>
	<g id="top_right">
		<polygon fill="#484592" points="77.901,33.142 77.901,35.231 94.454,25.524 94.454,23.552 		"/>
	</g>
	<g id="MAIN_TOP">
		<path fill="none" d="M0,31.206"/>
		
			<linearGradient id="SVGID_10_" gradientUnits="userSpaceOnUse" x1="-246.3503" y1="1223.8318" x2="-246.3503" y2="1223.8318" gradientTransform="matrix(1 0 0 1 246.5645 -1192.8398)">
			<stop  offset="0.2331" style="stop-color:#666699"/>
			<stop  offset="0.9907" style="stop-color:#A7B3D9"/>
		</linearGradient>
		<path fill="url(#SVGID_10_)" d="M0.214,30.992"/>
		
			<linearGradient id="SVGID_11_" gradientUnits="userSpaceOnUse" x1="-197.1824" y1="1197.3621" x2="-200.8269" y2="1237.8571" gradientTransform="matrix(1 0 0 1 246.5645 -1192.8398)">
			<stop  offset="0" style="stop-color:#AAACD2"/>
			<stop  offset="0.6258" style="stop-color:#FCFAFB"/>
		</linearGradient>
		<polygon fill="url(#SVGID_11_)" points="53.833,0 94.454,23.552 77.901,33.142 54.004,19.174 16.628,40.755 0.214,30.992 		"/>
		
			<linearGradient id="SVGID_12_" gradientUnits="userSpaceOnUse" x1="-174.7903" y1="1192.6833" x2="-178.4347" y2="1233.177" gradientTransform="matrix(1 0 0 1 246.5645 -1192.8398)">
			<stop  offset="0.6743" style="stop-color:#AAACD2"/>
			<stop  offset="1" style="stop-color:#FCFAFB"/>
		</linearGradient>
		<polygon fill="url(#SVGID_12_)" points="28.814,47.455 53.68,33.409 77.369,46.781 106.232,30.192 107.627,31.206 54.004,62.205 
					"/>
	</g>
</g>
<g>
	<path id="path23497" fill="#F4F4F4" d="M373.52,21.158v-4.949h-14.143c-1.816,0-3.533,0.404-5.056,1.11
		c-1.513,0.71-2.726,1.718-3.634,2.932c-0.908,1.209-1.313,2.529-1.416,4.04v15.252c0.1,1.417,0.508,2.729,1.313,3.944
		c0.91,1.21,2.119,2.116,3.535,2.924c1.518,0.71,3.128,1.115,5.055,1.115h14.34v-4.949h-13.739c-1.11,0-2.118-0.306-3.021-0.911
		c-0.815-0.604-1.318-1.312-1.318-2.317V33.69h18.082v-5.053h-18.082v-4.144c0-1.013,0.503-1.817,1.318-2.427
		c0.902-0.606,1.91-0.91,3.021-0.91h13.739"/>
	<path id="path23501" fill="#F4F4F4" d="M457.95,16.21v31.317h15.104c1.916-0.098,3.625-0.405,5.139-1.107
		c1.609-0.804,2.818-1.712,3.724-2.921c0.907-1.203,1.308-2.615,1.407-4.127V24.266c-0.102-1.509-0.5-2.821-1.407-4.028
		c-0.903-1.208-2.11-2.213-3.724-2.921c-1.514-0.705-3.225-1.107-5.139-1.107H457.95L457.95,16.21z M475.778,22.052
		c0.898,0.604,1.303,1.407,1.404,2.418v14.805c-0.104,1.006-0.506,1.812-1.404,2.416c-0.809,0.703-1.82,1.005-2.928,1.005h-8.758
		V21.046h8.758C473.957,21.046,474.969,21.347,475.778,22.052"/>
	<path id="path23503" fill="#F4F4F4" d="M531.956,17.302c-1.486-0.69-3.172-0.991-5.053-1.093h-5.453
		c-1.885,0.101-3.564,0.4-5.057,1.093c-1.584,0.796-2.775,1.682-3.666,2.874c-0.896,1.188-1.389,2.576-1.389,4.063v15.359
		c0,1.484,0.493,2.775,1.389,3.967c0.891,1.188,2.082,2.179,3.666,2.874c1.49,0.691,3.172,1.089,5.057,1.089h5.453
		c1.881,0,3.563-0.396,5.053-1.089c1.584-0.694,2.773-1.686,3.666-2.874c0.895-1.191,1.389-2.577,1.389-3.967v-15.36
		c-0.098-1.487-0.494-2.877-1.389-4.063C534.731,18.981,533.541,18.094,531.956,17.302z M529.577,21.958
		c0.893,0.694,1.389,1.484,1.389,2.382V39.4c0,0.892-0.496,1.686-1.389,2.379c-0.793,0.597-1.786,0.994-2.873,0.994h-5.055
		c-1.094,0-2.084-0.396-2.977-0.994c-0.789-0.694-1.285-1.487-1.285-2.379V24.34c0-0.896,0.496-1.688,1.285-2.382
		c0.893-0.596,1.883-0.893,2.977-0.992h5.055C527.793,21.067,528.784,21.363,529.577,21.958"/>
	<path id="path23515" fill="#F4F4F4" d="M169.301,16.21h-6.163v20.003L152.634,16.21h-8.385v31.317h6.163V23.083l12.826,24.444
		h6.063V16.21"/>
	<path id="path23515_1_" fill="#F4F4F4" d="M269.711,16.21h-6.163v20.003L253.043,16.21h-8.385v31.317h6.161V23.083l12.828,24.444
		h6.063V16.21"/>
	<path id="path23515_2_" fill="#F4F4F4" d="M428.299,16.21h-6.162v20.003L411.633,16.21h-8.389v31.317h6.163V23.083l12.828,24.444
		h6.063V16.21"/>
	<path id="path23517" fill="#F4F4F4" d="M210.526,47.527V16.21h-7.068v31.317H210.526L210.526,47.527"/>
	<path id="path23521" fill="#F4F4F4" d="M296.922,16.21v4.949h10.399v26.369h6.671v-26.37h10.504v-4.949H296.92l0,0"/>
</g>
<g>
	<path id="path23505" fill="#F4F4F4" d="M543.92,69.03v-8.463h-42.719v40.229h43.113v-9.062h-31.854v-7.57h18.314v-8.457h-18.314
		V69.03H543.92L543.92,69.03"/>
	<path id="path23507" fill="#F4F4F4" d="M496.372,68.755c0.098-2.785-0.695-4.977-2.393-6.272c-1.596-1.396-4.08-2.09-7.467-2.09
		h-35.148v40.323h32.658c8.563-0.099,12.744-2.887,12.744-8.562v-4.883c0-3.382-1.492-5.87-4.582-7.264
		c2.789-1.298,4.188-3.485,4.188-6.574V68.755L496.372,68.755z M485.52,68.955c0.398,0.399,0.602,0.8,0.496,1.396v3.685
		c0.104,0.495-0.098,0.995-0.496,1.293l-2.795,0.495h-20.107v-7.266h20.107C484.227,68.558,485.221,68.757,485.52,68.955
		L485.52,68.955z M462.616,91.855v-7.867h20.211c1.496,0,2.395,0.201,2.891,0.5c0.4,0.401,0.596,0.998,0.596,1.993v2.886
		c0,0.897-0.19,1.594-0.596,1.891c-0.496,0.4-1.395,0.599-2.891,0.599L462.616,91.855"/>
	<path id="path23509" fill="#F4F4F4" d="M446.614,60.458h-11.25v31.167h-24.396V60.458H399.72v30.271
		c-0.106,2.484,0.295,4.482,0.989,5.975c0.601,1.396,1.798,2.49,3.39,3.089c1.597,0.695,3.684,0.993,6.47,0.896h25.093
		c2.789,0.097,4.979-0.201,6.57-0.896c1.59-0.599,2.689-1.692,3.389-3.089c0.695-1.491,0.996-3.487,0.996-5.975V60.458"/>
	<path id="path23511" fill="#F4F4F4" d="M394.09,64.607c-0.705-1.489-1.896-2.488-3.39-3.188c-1.596-0.602-3.782-0.896-6.473-0.896
		h-24.591c-2.789,0-4.881,0.298-6.479,0.896c-1.591,0.697-2.786,1.696-3.382,3.188c-0.697,1.494-1.096,3.482-0.993,5.974v20.214
		c-0.103,2.484,0.296,4.48,0.993,5.973c0.596,1.396,1.791,2.489,3.382,3.093c1.599,0.691,3.688,0.991,6.479,0.893h24.592
		c2.688,0.1,4.877-0.198,6.473-0.893c1.492-0.604,2.686-1.697,3.389-3.093c0.597-1.489,0.996-3.485,0.996-5.973v-7.371
		l-11.258,0.105v8.162h-23.893V69.39h23.893v7.165h11.258V70.58C395.086,67.996,394.687,66.007,394.09,64.607"/>
	<path id="path23513" fill="#F4F4F4" d="M340.461,69.03v-8.463h-42.718v40.229h43.114v-9.062h-31.861v-7.57h18.321v-8.457h-18.32
		V69.03H340.461L340.461,69.03"/>
	<path id="path23523" fill="#F4F4F4" d="M282.411,60.458l-17.127,28.48l-17.025-28.48h-10.254v33.159l-20.018-33.159h-10.056
		l-23.994,40.229h30.068v-9.063h-13.442l12.447-20.013l16.828,29.072h18.519V79.179l12.844,21.505h8.266l12.942-21.505v21.505
		h10.354V60.457h-10.354l0,0"/>
	<path id="path23525" fill="#F4F4F4" d="M184.83,69.307v-8.771h-37.938c-2.685,0-4.879,0.3-6.474,0.899
		c-1.59,0.694-2.688,1.696-3.381,3.187c-0.7,1.493-0.998,3.483-0.998,5.977v20.21c0,2.484,0.298,4.481,0.998,5.975
		c0.694,1.395,1.792,2.49,3.381,3.091c1.594,0.692,3.789,0.991,6.474,0.896h27.584c3.979,0.097,6.77-0.601,8.458-2.093
		c1.595-1.595,2.393-4.183,2.294-7.866V76.57H159.14v8.47h15.135v6.667H147.29V69.307H184.83"/>
</g>
<g>
	<path id="path23527" fill="#F4F4F4" d="M566.93,91.979h-1.693l-2.041,6.45c-0.334,0.513-0.51,1.022-0.51,1.36
		c-0.172-0.338-0.346-0.682-0.512-1.188l-2.211-6.626h-1.699v9.17h1.025v-7.813l2.719,7.813h1.012l2.721-7.644v7.644h1.189V91.979"
		/>
	<path id="path23529" fill="#F4F4F4" d="M554.016,93.167h2.893v-1.188h-7.139v1.188h3.063v7.982h1.188v-7.982"/>
</g>
</svg>
