<?xml version="1.0" encoding="utf-8"?>
<!-- Generator: Adobe Illustrator 13.0.0, SVG Export Plug-In . SVG Version: 6.00 Build 14948)  -->
<!DOCTYPE svg PUBLIC "-//W3C//DTD SVG 1.1//EN" "http://www.w3.org/Graphics/SVG/1.1/DTD/svg11.dtd">
<svg version="1.1" id="Ebene_2" xmlns="http://www.w3.org/2000/svg" xmlns:xlink="http://www.w3.org/1999/xlink" x="0px" y="0px"
	 width="566.93px" height="97.854px" viewBox="0 0 566.93 97.854" enable-background="new 0 0 566.93 97.854" xml:space="preserve">
<path fill="#FFFFFF" d="M90.931,60.036L57.737,40.1l14.755-0.008c9.917,0,17.957-8.04,17.957-17.957V18.17
	c0-9.917-8.04-17.957-17.957-17.957H0.027V60.12h11.551V10.56h43.087l16.165-0.012c4.777,0,8.649,3.873,8.649,8.649v1.909
	c0,4.776-3.873,8.649-8.649,8.649H20.441l50.415,30.28H90.931z"/>
<path d="M11.578,10.56h43.087l16.165-0.012"/>
<path d="M72.492,0.213H0.027"/>
<polygon fill="#FFFFFF" points="198.012,10.56 236.769,10.548 236.769,0.213 143.374,0.213 143.374,60.12 198.012,60.12 
	236.769,60.108 236.769,49.772 154.925,49.772 154.925,10.56 "/>
<polygon fill="#FFFFFF" points="446.496,0.213 446.496,60.12 501.135,60.12 539.89,60.108 539.89,49.772 458.048,49.772 
	458.048,0.213 "/>
<polygon fill="#FFFFFF" points="162.728,24.993 221.418,24.993 221.418,35.328 162.728,35.34 "/>
<path fill="none" stroke="#000000" stroke-width="0.1" stroke-miterlimit="10" d="M326.284,0.986"/>
<polygon fill="#FFFFFF" points="340.735,0 277.603,59.834 292.628,59.834 340.963,14.025 364.022,34.509 331.321,34.509 
	320.401,44.845 320.401,44.845 375.657,44.845 392.531,59.834 408.094,59.834 "/>
<rect x="109.409" y="19.406" fill="#F01B20" width="19.004" height="19.004"/>
<rect x="255.743" y="19.406" fill="#23B14D" width="19.004" height="19.004"/>
<rect x="405.879" y="19.406" fill="#0000D8" width="19.005" height="19.004"/>
<rect x="0" y="70.814" fill="#0000D8" width="539.863" height="3.802"/>
<g>
	<path fill="#FFFFFF" d="M321.311,82.527h7.139l5.255,9.758l5.256-9.758h7.139v15.158h-4.522V86.799h-0.042l-6.092,10.887h-3.476
		l-6.092-10.887h-0.043v10.887h-4.521V82.527z"/>
	<path fill="#FFFFFF" d="M350.077,82.527h4.648v8.752c0,1.927,0.689,2.681,2.596,2.681h4.606c1.904,0,2.596-0.754,2.596-2.681
		v-8.752h4.648v9.758c0,3.769-1.947,5.568-6.22,5.568h-6.656c-4.271,0-6.22-1.801-6.22-5.568L350.077,82.527L350.077,82.527z"/>
	<path fill="#FFFFFF" d="M373.147,82.527h4.648v11.265h10.447v3.895h-15.097L373.147,82.527L373.147,82.527z"/>
	<path fill="#FFFFFF" d="M387.614,82.527h17.713v3.77h-6.531v11.39h-4.648v-11.39h-6.532L387.614,82.527L387.614,82.527z"/>
	<path fill="#FFFFFF" d="M408.445,82.527h4.648v15.158h-4.648V82.527z"/>
	<path fill="#FFFFFF" d="M417.322,82.527h12.667c4.418,0,5.485,2.221,5.485,5.192v1.298c0,2.262-0.984,4.857-4.271,4.857h-9.232
		v3.811h-4.648V82.527L417.322,82.527z M421.97,90.106h7.223c1.089,0,1.508-0.712,1.508-1.611v-0.586
		c0-1.025-0.503-1.612-1.904-1.612h-6.825L421.97,90.106L421.97,90.106z"/>
	<path fill="#FFFFFF" d="M438.823,82.527h4.648v11.265h10.447v3.895h-15.097L438.823,82.527L438.823,82.527z"/>
	<path fill="#FFFFFF" d="M463.444,82.527h6.051l8.333,15.158h-5.172l-1.443-2.68h-9.423l-1.359,2.68h-5.193L463.444,82.527z
		 M463.527,91.74h5.946l-3.016-5.694L463.527,91.74z"/>
	<path fill="#FFFFFF" d="M484.589,92.409l-8.396-9.883h5.611l5.107,6.197l5.108-6.197h5.611l-8.396,9.883v5.275h-4.647v-5.275
		H484.589z"/>
	<path fill="#FFFFFF" d="M500.185,82.527h16.582v3.519h-11.935v2.429h11.307v3.141h-11.307v2.43h12.205v3.643h-16.854
		L500.185,82.527L500.185,82.527z"/>
	<path fill="#FFFFFF" d="M520.681,82.527h14.028c3.58,0,4.543,1.779,4.543,4.502v0.964c0,2.029-0.461,3.224-2.598,3.727v0.042
		c1.383,0.251,2.533,0.858,2.533,3.35v2.575h-4.646v-1.82c0-1.593-0.461-2.115-1.905-2.115h-7.308v3.937h-4.647V82.527
		L520.681,82.527z M525.33,89.98h7.685c1.256,0,1.717-0.502,1.717-1.591v-0.503c0-1.34-0.67-1.591-2.136-1.591h-7.266V89.98z"/>
</g>
<g>
	<path fill="#FFFFFF" d="M90.971,82.527h4.647v15.158h-4.647V82.527z"/>
	<path fill="#FFFFFF" d="M99.848,82.527h7.201l8.73,11.014h0.042V82.527h4.647v15.158h-7.202l-8.73-11.013h-0.042v11.013h-4.647
		L99.848,82.527L99.848,82.527z"/>
	<path fill="#FFFFFF" d="M123.338,82.527h17.712v3.77h-6.531v11.39h-4.648v-11.39h-6.532V82.527L123.338,82.527z"/>
	<path fill="#FFFFFF" d="M143.917,82.527H160.5v3.519h-11.934v2.429h11.306v3.141h-11.306v2.43h12.206v3.643h-16.854L143.917,82.527
		L143.917,82.527z"/>
	<path fill="#FFFFFF" d="M164.414,82.527h14.028c3.58,0,4.543,1.779,4.543,4.502v0.964c0,2.029-0.461,3.224-2.596,3.727v0.042
		c1.382,0.251,2.532,0.858,2.532,3.35v2.575h-4.647v-1.82c0-1.593-0.461-2.115-1.905-2.115h-7.307v3.937h-4.648V82.527z
		 M169.062,89.98h7.683c1.257,0,1.717-0.502,1.717-1.591v-0.503c0-1.34-0.67-1.591-2.135-1.591h-7.265V89.98z"/>
	<path fill="#FFFFFF" d="M193.682,82.527h6.051l8.333,15.158h-5.171l-1.445-2.68h-9.422l-1.36,2.68h-5.192L193.682,82.527z
		 M193.765,91.74h5.945l-3.015-5.694L193.765,91.74z"/>
	<path fill="#FFFFFF" d="M210.22,87.845c0-4.438,2.49-5.485,6.679-5.485h5.465c6.616,0,7.474,1.425,7.433,5.718h-4.647v-0.419
		c0-1.09-0.795-1.403-2.177-1.403h-5.067c-2.449,0-2.91,1.152-2.91,3.036v1.633c0,2.198,0.461,3.036,2.659,3.036h4.962
		c2.094,0,2.722-0.21,2.722-2.094h4.647v1.424c0,2.555-0.921,4.563-5.59,4.563h-7.496c-4.188,0-6.679-1.047-6.679-5.484V87.845z"/>
	<path fill="#FFFFFF" d="M232.517,82.527h17.712v3.77h-6.532v11.39h-4.648v-11.39h-6.531V82.527L232.517,82.527z"/>
	<path fill="#FFFFFF" d="M253.347,82.527h4.647v15.158h-4.647V82.527z"/>
	<path fill="#FFFFFF" d="M260.758,82.527h5.089l5.925,11.265l5.925-11.265h5.088l-8.145,15.158h-5.737L260.758,82.527z"/>
	<path fill="#FFFFFF" d="M285.295,82.527h16.584v3.519h-11.935v2.429h11.307v3.141h-11.307v2.43h12.207v3.643h-16.855
		L285.295,82.527L285.295,82.527z"/>
</g>
<g>
	<path fill="#FFFFFF" d="M0.027,92.305h4.396v0.67c0,1.277,0.398,1.612,2.011,1.612h5.548c1.444,0,1.613-0.397,1.613-1.424
		c0-1.005-0.253-1.465-1.676-1.465H7.146v-3.143h4.334c1.507,0,1.778-0.376,1.778-1.465c0-1.173-0.731-1.466-2.113-1.466H6.539
		c-1.507,0-1.968,0.313-1.968,1.443v0.649H0.174v-0.837c0-4.083,1.989-4.523,7.685-4.523h3.119c5.401,0,6.679,0.838,6.679,4.188
		c0,2.555-0.439,2.869-2.512,3.497v0.063c2.45,0.419,2.848,1.193,2.848,3.603c0,2.993-1.047,4.146-5.255,4.146H5.01
		c-2.7,0-4.982-0.773-4.982-3.937V92.305z"/>
	<path fill="#FFFFFF" d="M21.926,82.527h14.028c4.648,0,6.281,1.528,6.281,5.276v4.605c0,3.748-1.633,5.275-6.281,5.275H21.926
		V82.527z M26.574,93.791h8.25c1.989,0,2.763-0.565,2.763-2.723v-2.052c0-2.156-0.773-2.722-2.763-2.722h-8.25V93.791z"/>
	<path fill="#FFFFFF" d="M45.542,87.845c0-4.438,2.491-5.485,6.68-5.485h7.453c4.188,0,6.68,1.049,6.68,5.485v4.523
		c0,4.438-2.491,5.484-6.68,5.484H52.22c-4.188,0-6.68-1.047-6.68-5.484L45.542,87.845L45.542,87.845z M50.315,90.923
		c0,2.198,0.461,3.036,2.659,3.036h5.945c2.198,0,2.659-0.838,2.659-3.036V89.29c0-1.884-0.46-3.036-2.91-3.036h-5.443
		c-2.449,0-2.91,1.152-2.91,3.036V90.923z"/>
</g>
<g>
	<path fill="#FFFFFF" d="M72.804,90.508h-2.174V84.25h-2.086v-1.892h6.454v1.892h-2.194V90.508L72.804,90.508z"/>
	<path fill="#FFFFFF" d="M78.267,90.508h-2.173V82.36h3.443l1.554,5.117h0.076l1.479-5.117h3.531v8.148h-2.174l0.218-6.246h-0.076
		l-2.064,6.246h-1.879l-2.086-6.246h-0.065L78.267,90.508z"/>
</g>
<g>
	<path fill="#FFFFFF" d="M548.799,90.676h-2.173v-6.258h-2.087v-1.892h6.453v1.892h-2.193V90.676L548.799,90.676z"/>
	<path fill="#FFFFFF" d="M554.26,90.676h-2.173v-8.148h3.443l1.555,5.117h0.075l1.479-5.117h3.531v8.148h-2.174l0.218-6.247h-0.076
		l-2.064,6.247h-1.879l-2.087-6.247h-0.063L554.26,90.676z"/>
</g>
<g>
	<path fill="#FFFFFF" d="M549.946,60.12h-2.758v-7.947h-2.648v-2.4h8.195v2.4h-2.789V60.12z"/>
	<path fill="#FFFFFF" d="M556.885,60.12h-2.759V49.772h4.373l1.974,6.498h0.097l1.876-6.498h4.484V60.12h-2.758l0.274-7.934h-0.098
		l-2.62,7.934h-2.388l-2.648-7.934h-0.083L556.885,60.12z"/>
</g>
</svg>
