<?xml version="1.0" encoding="utf-8"?>
<!-- Generator: Adobe Illustrator 13.0.0, SVG Export Plug-In . SVG Version: 6.00 Build 14948)  -->
<!DOCTYPE svg PUBLIC "-//W3C//DTD SVG 1.1//EN" "http://www.w3.org/Graphics/SVG/1.1/DTD/svg11.dtd">
<svg version="1.1"
	 id="svg4237" sodipodi:version="0.32" sodipodi:docname="PlaystationPortable.svg" sodipodi:docbase="F:\Logos" inkscape:version="0.44" xmlns:dc="http://purl.org/dc/elements/1.1/" xmlns:cc="http://web.resource.org/cc/" xmlns:rdf="http://www.w3.org/1999/02/22-rdf-syntax-ns#" xmlns:svg="http://www.w3.org/2000/svg" xmlns:sodipodi="http://sodipodi.sourceforge.net/DTD/sodipodi-0.dtd" xmlns:inkscape="http://www.inkscape.org/namespaces/inkscape"
	 xmlns="http://www.w3.org/2000/svg" xmlns:xlink="http://www.w3.org/1999/xlink" x="0px" y="0px" width="566.93px"
	 height="185.059px" viewBox="0 0 566.93 185.059" enable-background="new 0 0 566.93 185.059" xml:space="preserve">
<sodipodi:namedview  id="base" inkscape:document-units="px" inkscape:pageshadow="2" inkscape:current-layer="layer1" inkscape:pageopacity="0.0" inkscape:window-y="378" inkscape:window-x="10" inkscape:window-width="925" inkscape:window-height="573" inkscape:cy="-11.131139" inkscape:cx="522.4006" inkscape:zoom="0.35" borderopacity="1.0" bordercolor="#666666" pagecolor="#ffffff">
	</sodipodi:namedview>
<g>
	<path id="path6905" fill="#FFFFFF" d="M103.245,160.91c5.332,0,8.531-1.087,8.531-6.155c0-3.752-2.327-5.76-7.658-5.76h-7.367
		v11.915H103.245z M93.939,176.565v-29.984h10.955c7.755,0,9.792,3.878,9.792,8.375c0,6.699-6.011,8.366-11.537,8.366h-6.398v13.242
		L93.939,176.565"/>
	<path id="path6907" fill="#FFFFFF" d="M118.466,176.565h2.424v-29.984h-2.424V176.565z"/>
	<path id="path6909" fill="#FFFFFF" d="M141.248,165.232c-2.133,0.872-4.362,1.047-6.494,1.213
		c-3.782,0.289-6.107,1.666-6.107,4.575c0,2.637,2.327,3.878,4.654,3.878c3.974,0,7.949-1.92,7.949-6.292L141.248,165.232
		L141.248,165.232z M136.982,163.991c0.969-0.087,2.521-0.339,3.296-0.718c0.873-0.369,0.97-1.492,0.97-2.238
		c0-2.54-1.552-4.372-5.429-4.372c-3.393,0-5.815,1.124-6.302,4.867h-2.521c0.388-5.081,4.168-7.126,8.919-7.126
		c4.361,0,7.756,1.716,7.756,6.708v11.741c0,1.957,0.581,2.414,2.617,1.666v1.959c-0.291,0.126-1.163,0.416-1.938,0.416
		c-0.389,0-0.679-0.038-1.066-0.125c-1.744-0.242-2.036-1.706-2.036-3.21c-2.037,2.338-4.944,3.588-8.047,3.588
		c-3.78,0-7.175-2.046-7.175-6.204c0-3.616,2.521-5.826,7.563-6.495L136.982,163.991"/>
	<path id="path6911" fill="#FFFFFF" d="M149.876,182.43c0.679,0.126,1.355,0.262,2.035,0.262c2.909,0,3.297-4.09,4.266-5.962
		l-8.435-21.735h2.813l6.979,18.536l6.883-18.536h2.715l-8.047,21.279c-2.037,5.409-3.394,8.784-6.884,8.784
		c-0.873,0-1.647-0.125-2.326-0.29L149.876,182.43"/>
	<path id="path6913" fill="#FFFFFF" d="M173.045,167.608c0.484,5.37,3.976,7.328,8.628,7.328c5.332,0,7.562-2.906,7.562-6.204
		c0-9.287-18.226-3.121-18.226-14.898c0-4.171,3.393-8.038,10.179-8.038c6.689,0,10.082,4.071,9.985,8.959h-2.617
		c0-4.587-3.587-6.544-7.368-6.544c-5.817,0-7.853,3.537-7.368,6.62c1.261,7.736,18.323,2.161,18.323,13.775
		c0,5.508-4.072,8.746-10.955,8.746c-6.302,0-10.955-3.238-10.955-9.743L173.045,167.608"/>
	<path id="path6915" fill="#FFFFFF" d="M205.135,176.644c-0.582,0.125-1.648,0.504-2.909,0.504c-2.424,0-3.781-1.086-3.781-4.294
		v-15.783h-3.103v-2.074h3.103v-6.001h2.521v6.001h3.975v2.074h-3.975v14.785c0,2.133,0,3.043,2.132,3.043
		c0.679,0,1.355-0.126,2.037-0.29V176.644"/>
	<path id="path6917" fill="#FFFFFF" d="M223.843,165.232c-2.132,0.872-4.265,1.047-6.398,1.213
		c-3.779,0.289-6.106,1.666-6.106,4.575c0,2.637,2.327,3.878,4.654,3.878c3.975,0,7.852-1.92,7.852-6.292L223.843,165.232
		L223.843,165.232z M219.675,163.991c0.873-0.087,2.425-0.339,3.297-0.718c0.776-0.369,0.872-1.492,0.872-2.238
		c0-2.54-1.454-4.372-5.332-4.372c-3.489,0-5.816,1.124-6.301,4.867h-2.521c0.387-5.081,4.168-7.126,8.821-7.126
		c4.364,0,7.853,1.716,7.853,6.708v11.741c0,1.957,0.486,2.414,2.619,1.666v1.959c-0.389,0.126-1.262,0.416-1.938,0.416
		c-0.389,0-0.775-0.038-1.164-0.125c-1.648-0.242-1.939-1.706-1.939-3.21c-2.134,2.338-4.942,3.588-8.046,3.588
		c-3.781,0-7.271-2.046-7.271-6.204c0-3.616,2.521-5.826,7.562-6.495L219.675,163.991"/>
	<path id="path6919" fill="#FFFFFF" d="M241.1,176.644c-0.581,0.125-1.649,0.504-2.908,0.504c-2.423,0-3.781-1.086-3.781-4.294
		v-15.783h-3.006v-2.074h3.006v-6.001h2.521v6.001h3.975v2.074h-3.975v14.785c0,2.133,0,3.043,2.132,3.043
		c0.678,0,1.358-0.126,2.037-0.29L241.1,176.644"/>
	<path id="path6921" fill="#FFFFFF" d="M248.565,176.565h-2.425v-21.569h2.425V176.565z M245.946,150.282v-3.701h2.813v3.701
		H245.946"/>
	<path id="path6923" fill="#FFFFFF" d="M263.301,156.663c-5.235,0-7.271,4.449-7.271,9.112c0,5.371,2.521,9.122,7.271,9.122
		c5.233,0,7.368-4.498,7.368-9.122C270.669,160.695,268.633,156.663,263.301,156.663z M253.315,165.774
		c0-6.281,3.394-11.371,9.985-11.371c6.785,0,10.082,5.04,10.082,11.371c0,6.837-3.976,11.372-10.082,11.372
		C257.872,177.06,253.315,173.317,253.315,165.774"/>
	<path id="path6925" fill="#FFFFFF" d="M279.393,176.565h-2.521v-21.569h2.521v2.995c1.938-2.123,3.975-3.587,6.883-3.587
		c2.714,0,5.041,0.833,6.592,3.083c1.065,1.552,1.163,3.169,1.163,4.953v14.124h-2.521v-14.076c0-3.866-1.647-5.825-5.623-5.825
		c-3.104,0-5.235,1.996-6.01,4.196c-0.486,1.377-0.486,2.59-0.486,4.092v11.614"/>
	<path id="path6927" fill="#FFFFFF" d="M303.823,169.557c-0.291-0.136-0.679-0.204-1.26-0.204h-0.776v1.997h0.875
		c0.386,0,0.773-0.038,0.968-0.114c0.387-0.155,0.582-0.445,0.582-0.873C304.212,169.965,304.016,169.692,303.823,169.557z
		 M302.757,168.675c0.68,0,1.164,0.059,1.551,0.193c0.582,0.243,0.775,0.708,0.775,1.416c0,0.494-0.099,0.854-0.484,1.086
		c-0.195,0.126-0.483,0.215-0.774,0.271c0.387,0.067,0.678,0.262,0.87,0.553c0.195,0.301,0.291,0.593,0.291,0.873v0.407
		c0,0.135,0,0.281,0.099,0.418c0,0.154,0,0.251,0,0.299v0.068h-0.873c0-0.021,0-0.039,0-0.049c0-0.021,0-0.05,0-0.078l-0.096-0.173
		v-0.447c0-0.658-0.195-1.086-0.486-1.289c-0.193-0.126-0.58-0.185-1.066-0.185h-0.773v2.221h-0.972v-5.584L302.757,168.675
		L302.757,168.675L302.757,168.675z M299.753,168.385c-0.873,0.853-1.263,1.89-1.263,3.091c0,1.231,0.39,2.27,1.263,3.123
		c0.872,0.863,1.841,1.289,3.103,1.289s2.229-0.426,3.103-1.289c0.873-0.854,1.262-1.891,1.262-3.123
		c0-1.201-0.389-2.238-1.262-3.091c-0.872-0.854-1.841-1.281-3.103-1.281C301.594,167.102,300.625,167.529,299.753,168.385z
		 M306.441,175.071c-0.97,0.99-2.229,1.493-3.586,1.493c-1.358,0-2.618-0.504-3.587-1.493c-0.971-0.987-1.455-2.189-1.455-3.597
		c0-1.386,0.484-2.588,1.455-3.567c0.968-0.998,2.229-1.482,3.587-1.482c1.356,0,2.616,0.483,3.586,1.482
		c0.97,0.97,1.455,2.172,1.455,3.567C307.896,172.884,307.41,174.085,306.441,175.071"/>
	<path id="path6929" fill="#FFFFFF" d="M324.957,160.91c5.332,0,8.628-1.087,8.628-6.155c0-3.752-2.423-5.76-7.755-5.76h-7.369
		v11.915H324.957z M315.651,176.565v-29.984h10.956c7.756,0,9.789,3.878,9.789,8.375c0,6.699-5.914,8.366-11.534,8.366h-6.4v13.242
		L315.651,176.565"/>
	<path id="path6931" fill="#FFFFFF" d="M347.545,156.663c-5.234,0-7.366,4.449-7.366,9.112c0,5.371,2.616,9.122,7.366,9.122
		c5.237,0,7.369-4.498,7.369-9.122C354.816,160.695,352.878,156.663,347.545,156.663z M337.56,165.774
		c0-6.281,3.296-11.371,9.984-11.371c6.787,0,9.987,5.04,9.987,11.371c0,6.837-3.977,11.372-9.987,11.372
		C342.019,177.06,337.56,173.317,337.56,165.774"/>
	<path id="path6933" fill="#FFFFFF" d="M363.735,176.565h-2.521v-21.569h2.521v4.044h0.099c1.354-3.463,3.392-4.635,6.979-4.635
		v2.716c-5.624-0.126-7.075,4.032-7.075,8.86v10.584"/>
	<path id="path6935" fill="#FFFFFF" d="M384.773,176.644c-0.582,0.125-1.647,0.504-2.813,0.504c-2.52,0-3.878-1.086-3.878-4.294
		v-15.783h-3.005v-2.074h3.005v-6.001h2.521v6.001h4.071v2.074h-4.071v14.785c0,2.133,0.099,3.043,2.132,3.043
		c0.683,0,1.455-0.126,2.037-0.29L384.773,176.644"/>
	<path id="path6937" fill="#FFFFFF" d="M402.707,165.232c-2.133,0.872-4.266,1.047-6.398,1.213
		c-3.782,0.289-6.106,1.666-6.106,4.575c0,2.637,2.326,3.878,4.651,3.878c3.977,0,7.854-1.92,7.854-6.292L402.707,165.232
		L402.707,165.232z M398.538,163.991c0.871-0.087,2.423-0.339,3.296-0.718c0.776-0.369,0.873-1.492,0.873-2.238
		c0-2.54-1.455-4.372-5.332-4.372c-3.489,0-5.817,1.124-6.301,4.867h-2.521c0.387-5.081,4.169-7.126,8.822-7.126
		c4.362,0,7.853,1.716,7.853,6.708v11.741c0,1.957,0.484,2.414,2.618,1.666v1.959c-0.389,0.126-1.262,0.416-1.938,0.416
		c-0.39,0-0.777-0.038-1.164-0.125c-1.647-0.242-1.938-1.706-1.938-3.21c-2.133,2.338-4.943,3.588-8.049,3.588
		c-3.779,0-7.271-2.046-7.271-6.204c0-3.616,2.521-5.826,7.563-6.495L398.538,163.991"/>
	<path id="path6939" fill="#FFFFFF" d="M422.483,174.897c4.17,0,7.271-3.043,7.369-8.452c0.192-5.41-2.229-9.782-7.369-9.782
		c-4.557,0-7.271,4.158-7.271,9.026C415.212,170.903,417.733,174.897,422.483,174.897z M415.212,176.565h-2.521v-29.984h2.521
		v11.865c1.553-2.618,4.653-4.043,7.66-4.043c6.59,0,9.597,5.38,9.597,11.42c0,6.359-2.714,11.323-9.694,11.323
		c-2.812,0-6.01-1.541-7.56-4.372l0,0v3.791"/>
	<path id="path6941" fill="#FFFFFF" d="M437.996,176.565h2.519v-29.984h-2.519V176.565z"/>
	<path id="path6943" fill="#FFFFFF" d="M462.23,164.273c0-4.198-2.325-7.61-6.784-7.61c-4.461,0-6.787,3.538-7.271,7.61H462.23z
		 M448.174,166.366c0,4.654,2.521,8.532,7.271,8.532c3.2,0,5.816-1.794,6.494-4.953h2.813c-1.26,4.07-3.78,7.203-9.307,7.203
		c-6.885,0-9.89-4.915-9.89-11.282c0-6.293,3.686-11.461,9.89-11.461c5.914,0,9.502,4.218,9.502,11.962L448.174,166.366"/>
	<path id="path6945" fill="#FFFFFF" d="M0.001,0.001h176.632v52.38H6.979v45.398H0.001v-52.38h169.651V6.979H0.001V0.001"/>
	<path id="path6947" fill="#FFFFFF" d="M397.278,52.381v45.398h-6.979v-52.38h169.65V6.979h-169.65V0.001h176.631v52.38H397.278"/>
	<path id="path6949" fill="#FFFFFF" d="M266.693,0.001v90.798h-90.061v6.98h97.428v-90.8h90.063V0.001H266.693"/>
</g>
</svg>
