<?xml version="1.0" encoding="utf-8"?>
<!-- Generator: Adobe Illustrator 13.0.0, SVG Export Plug-In . SVG Version: 6.00 Build 14948)  -->
<!DOCTYPE svg PUBLIC "-//W3C//DTD SVG 1.1//EN" "http://www.w3.org/Graphics/SVG/1.1/DTD/svg11.dtd">
<svg version="1.1" id="Layer_1" xmlns="http://www.w3.org/2000/svg" xmlns:xlink="http://www.w3.org/1999/xlink" x="0px" y="0px"
	 width="773.821px" height="261.338px" viewBox="0 0 773.821 261.338" enable-background="new 0 0 773.821 261.338"
	 xml:space="preserve">
<g>
	<rect fill="#EB2D2E" width="773.821" height="261.338"/>
	<g>
		<path fill="#FFFFFF" d="M614.249,226.806H532.75c-2.896,0-5.678-0.107-8.475-0.537c-2.68-0.322-5.143-0.854-7.398-1.502
			c-3.217-0.748-5.578-2.358-7.076-3.646c-1.283-1.181-1.926-2.464-1.926-3.753v-14.157c0.322-1.179,1.178-2.681,2.57-3.752
			c1.391-1.071,3.326-2.039,5.572-2.681c2.361-0.646,4.941-1.18,7.83-1.502c3.008-0.318,6.111-0.537,9.551-0.537h80.85v4.295h-80.85
			c-3.438,0-6.441,0.104-9.123,0.425c-2.568,0.323-5.143,0.856-7.502,1.504c-3.215,0.966-3.865,2.142-4.506,3.75l-0.105,3.323
			h101.98l0.105,4.398H512.27v4.613c0,1.18,0.854,2.36,5.145,3.537c2.143,0.535,4.51,0.963,7.188,1.285
			c2.682,0.427,5.359,0.535,8.039,0.535h81.607V226.806z"/>
		<path fill="#FFFFFF" d="M445.893,226.806h-0.217H445.893z"/>
		<polygon fill="#FFFFFF" points="495.006,199.246 443.641,199.246 443.641,226.806 439.131,226.806 439.131,199.246 
			387.874,199.246 387.874,194.741 495.006,194.741 		"/>
		<path fill="#FFFFFF" d="M238.816,213.507h-29.708v13.299h-4.501v-13.299h-38.392c-5.79,0-12.978-0.752-12.978-9.33v-9.438h4.719
			v9.011c0,5.683,5.468,5.146,9.007,5.146h71.529h9.22c3.649,0,9.116,0.537,9.116-5.146v-9.011h4.507v9.439
			c0,8.576-7.189,9.328-12.977,9.328H238.816z"/>
		<path fill="#FFFFFF" d="M141.66,199.351H55.869l0,0c-4.288,0-8.15,0.752-10.938,1.935c-2.144,0.856-3.43,1.819-3.43,2.679l0,0l0,0
			c0,0.857,1.286,1.821,3.43,2.682l0,0c2.788,1.072,6.65,1.822,10.938,1.822l0,0h37.215h29.705c3.215,0,6.325,0.321,8.899,0.965
			c1.394,0.323,2.574,0.752,3.752,1.182l0,0c1.18,0.533,2.251,1.074,3.11,1.607l0,0c2.039,1.5,3.219,3.328,3.219,5.363v0.105
			c0,2.896-2.47,5.361-6.329,6.968c-3.324,1.288-7.828,2.147-12.651,2.147l0,0H38.174v-4.611h84.614l0,0
			c4.285,0,8.146-0.756,10.938-1.823c2.035-0.961,3.429-1.931,3.429-2.681v-0.105c0-0.432-0.536-0.967-1.288-1.505l0,0
			c-0.645-0.429-1.395-0.75-2.141-1.179l0,0c-0.967-0.322-1.934-0.639-3.114-0.965c-2.249-0.535-4.931-0.858-7.825-0.858H93.083
			H55.869l0,0c-4.823,0-9.33-0.748-12.651-2.144l0,0c-3.859-1.607-6.326-4.074-6.326-6.972l0,0l0,0c0-3,2.467-5.467,6.326-7.077
			c3.321-1.285,7.829-2.146,12.651-2.146l0,0h85.791V199.351z"/>
		<path fill="#FFFFFF" d="M377.044,199.351h-85.682l0,0c-4.291,0-8.154,0.752-10.939,1.935c-2.144,0.856-3.432,1.819-3.432,2.679
			l0,0l0,0c0,0.857,1.288,1.821,3.432,2.682l0,0c2.785,1.072,6.648,1.822,10.939,1.822l0,0h37.209h29.703
			c3.218,0,6.328,0.321,8.795,0.965c1.394,0.323,2.573,0.752,3.754,1.182l0,0c1.182,0.533,2.253,1.074,3.108,1.607h-0.105
			c2.146,1.5,3.324,3.328,3.324,5.363v0.105c0,2.896-2.466,5.361-6.327,6.968c-3.323,1.288-7.719,2.147-12.549,2.147l0,0h-84.607
			v-4.611h84.607l0,0c4.293,0,8.046-0.756,10.725-1.823c2.145-0.961,3.54-1.931,3.54-2.681v-0.105c0-0.432-0.534-0.967-1.284-1.505
			l0,0c-0.647-0.429-1.394-0.75-2.145-1.179l0,0c-0.967-0.322-1.931-0.639-3.007-0.965c-2.25-0.535-4.932-0.858-7.829-0.858h-29.703
			h-37.209l0,0c-4.827,0-9.329-0.748-12.656-2.144l0,0c-3.858-1.607-6.325-4.074-6.325-6.972l0,0l0,0c0-3,2.36-5.467,6.325-7.077
			c3.327-1.285,7.829-2.146,12.656-2.146l0,0h85.682V199.351L377.044,199.351z"/>
		<path fill="#FFFFFF" d="M734.573,194.741c1.18,0,2.359,0.859,2.359,2.248v29.816h-4.4v-25.843l-48.686,24.554l-0.641,0.219
			c-2.686,1.07-3.432,0.855-5.363,0l-0.645-0.321l-48.26-24.558v25.949h-4.613v-29.921c0-1.39,1.188-2.146,2.26-2.146
			c0.637,0,0.965,0.107,1.496,0.428l50.189,25.85c1.926,0.854,2.252,1.281,4.611,0.104l44.396-22.625l6.322-3.433
			C733.928,194.849,734.354,194.741,734.573,194.741z"/>
	</g>
	<g>
		<path fill="#FFFFFF" d="M513.342,49.757V88.04h-2.998c-3.543-10.507-8.906-18.44-16.09-23.803
			c-7.082-5.472-11.371-8.262-19.836-8.262c-8.045,0-14.803,2.361-20.168,6.864c-5.467,4.613-9.217,10.938-11.471,19.089
			c-2.252,8.15-3.318,16.515-3.318,25.092c0,10.403,1.174,19.52,3.639,27.349c2.469,7.933,6.438,12.114,11.904,15.763
			c5.475,3.643,9.863,5.469,17.373,5.469c2.686,0,5.363-0.215,8.045-0.752c2.787-0.642,4.93-1.391,7.822-2.463v-27.67
			c0-4.292-0.32-7.078-0.855-8.364c-0.641-1.181-1.824-2.361-3.645-3.323c-1.824-1.073-4.076-1.608-6.758-1.608h-2.791v-2.898
			h52.762v2.898c-3.963,0.321-6.752,0.857-8.357,1.715c-1.607,0.75-2.795,2.146-3.648,4.074c-0.428,1.071-0.646,3.541-0.752,7.505
			l-0.213,26.812c-6.865,3.002-13.188,5.576-20.697,7.184c-7.508,1.504-15.336,2.787-23.379,2.787
			c-10.293,0-16.832-0.75-23.59-3.537c-6.859-2.787-12.768-5.361-18.021-9.863c-5.143-4.615-9.221-9.761-12.225-15.443
			c-3.639-7.401-5.57-15.548-5.57-24.773c0-16.298,5.787-30.025,17.266-41.285c11.361-11.258,25.844-16.836,43.213-16.836
			c7.936,0,15.018,2.039,22.418,4.827c5.25,2.037,8.355,3.002,9.328,3.002c1.498,0,2.785-0.537,4.072-1.612
			c1.283-1.069,2.465-3.107,3.545-6.217h2.996V49.757z"/>
		<path fill="#FFFFFF" d="M318.814,56.728c-0.109,0-0.217,0-0.217,0v-6.004c17.695-0.427,32.279,4.612,43.432,14.903
			c11.37,10.617,17.051,23.806,17.051,39.678c0,13.617-4.289,25.521-12.76,35.924c-11.263,13.619-27.132,20.485-47.723,20.485
			v-8.258l0,0c5.686,0,10.619-1.504,14.37-4.077c4.827-3.216,7.937-8.471,10.62-15.658c2.677-7.077,4.501-16.191,4.501-27.665
			c0-13.73-1.395-23.912-4.183-30.668c-2.68-6.868-6.22-11.583-10.401-14.477C329.217,58.124,324.283,56.728,318.814,56.728z
			 M318.598,56.728c-10.186,0.108-17.801,4.935-23.054,14.585c-4.396,7.828-6.541,19.301-6.541,34.1
			c0,17.698,3.111,30.992,9.756,39.357c4.717,5.898,11.475,8.688,19.838,8.688v8.258h-0.104c-20.588,0-36.566-6.543-47.828-19.628
			c-8.9-10.293-13.404-22.518-13.404-36.675c0-15.87,5.79-29.168,17.373-39.676c11.583-10.617,25.844-15.657,42.786-15.013
			c0.428,0,0.751,0,1.178,0L318.598,56.728L318.598,56.728z"/>
		<path fill="#FFFFFF" d="M200.208,58.551v42.787h2.361c7.4,0,10.297-2.146,13.621-6.542c3.321-4.287,5.471-10.615,6.326-19.085
			h3.324v56.834h-3.324c-0.644-6.218-2.144-11.261-4.287-15.227c-2.256-3.968-4.827-6.651-7.724-7.937
			c-2.896-1.394-4.717-2.039-10.297-2.039v31.851c0,6.006,0.325,9.652,0.859,10.938c0.539,1.396,1.502,2.466,3.005,3.326
			c1.499,0.858,3.858,1.285,7.292,1.285h6.97c10.831,0,13.94-2.358,20.482-7.074c6.54-4.614,11.046-9.978,13.941-19.627h3.216
			l-5.041,32.706h-95.335v-3.002h3.971c3.325,0,6.113-0.535,8.15-1.609c1.5-0.75,2.68-2.037,3.43-3.861
			c0.645-1.287,0.964-4.604,0.964-10.078V70.775c0-4.823-0.105-7.831-0.425-9.005c-0.539-1.828-1.608-3.327-3.218-4.293
			c-2.145-1.502-5.148-2.251-8.901-2.251h-3.971v-3.002h97.801v32.065h-3.215c-1.717-7.828-3.968-13.407-7.079-16.836
			c-3.002-3.433-7.184-5.901-12.76-7.51c-3.215-0.96-9.221-1.391-18.125-1.391L200.208,58.551L200.208,58.551z"/>
		<path fill="#FFFFFF" d="M73.456,52.223l60.159,67.347V72.919c0-6.539-0.967-10.938-3.108-13.188
			c-2.896-3.11-6.328-4.612-13.19-4.506v-3.002h36.353v3.002c-5.148,0.535-6.006,1.396-7.723,2.251
			c-1.818,0.966-3.215,2.465-4.178,4.613c-0.967,2.041-1.503,5.681-1.503,10.829v90.295h-3.002L54.689,72.919v68.955
			c0,6.223,1.611,10.4,4.826,12.654c3.218,2.145,6.861,3.217,11.047,3.217h2.894v3.002H30.133v-3.002
			c6.758,0,11.368-1.283,14.048-3.646c2.574-2.357,3.965-6.43,3.965-12.225V65.306l-2.68-2.894
			c-2.573-2.896-4.823-4.718-6.753-5.684c-2.041-0.858-0.214-1.392-3.86-1.502v-3.002L73.456,52.223L73.456,52.223z"/>
		<path fill="#FFFFFF" d="M683.311,56.728c-0.104,0-0.213,0-0.213,0v-6.004c17.691-0.427,32.277,4.612,43.432,14.903
			c11.471,10.617,17.16,23.806,17.16,39.678c0,13.617-4.287,25.521-12.768,35.924c-11.367,13.619-27.236,20.485-47.824,20.485
			v-8.258l0,0c5.686,0,10.617-1.504,14.375-4.077c4.818-3.216,7.928-8.471,10.609-15.658c2.68-7.077,4.506-16.191,4.506-27.665
			c0-13.73-1.396-23.912-4.186-30.668c-2.682-6.868-6.223-11.583-10.4-14.477C693.715,58.124,688.784,56.728,683.311,56.728z
			 M683.098,56.728c-10.188,0.108-17.805,4.935-23.055,14.585c-4.398,7.828-6.541,19.301-6.541,34.1
			c0,17.698,3.107,30.992,9.756,39.357c4.715,5.898,11.473,8.688,19.84,8.688v8.258c0,0,0,0-0.113,0
			c-20.582,0-36.559-6.543-47.824-19.628c-8.898-10.293-13.402-22.518-13.402-36.675c0-15.87,5.793-29.168,17.373-39.676
			c11.578-10.617,25.844-15.657,42.789-15.013c0.428,0,0.752,0,1.18,0v6.004H683.098z"/>
		<path fill="#FFFFFF" d="M564.708,58.551v42.787h2.359c7.395,0,10.297-2.146,13.617-6.542c3.322-4.287,5.465-10.615,6.326-19.085
			h3.33v56.834h-3.33c-0.643-6.218-2.137-11.261-4.285-15.227c-2.254-3.968-4.83-6.651-7.723-7.937
			c-2.895-1.394-4.713-2.039-10.297-2.039v31.851c0,6.006,0.324,9.652,0.861,10.938c0.535,1.396,1.5,2.466,2.998,3.326
			c1.5,0.858,3.861,1.285,7.293,1.285h6.973c10.826,0,13.941-2.358,20.48-7.074c6.547-4.614,11.043-9.978,13.939-19.627h3.223
			l-5.041,32.706h-95.336v-3.002h3.971c3.322,0,6.109-0.535,8.145-1.609c1.506-0.75,2.682-2.037,3.436-3.861
			c0.637-1.287,0.969-4.604,0.969-10.078V70.775c0-4.823-0.113-7.831-0.434-9.005c-0.535-1.828-1.607-3.327-3.217-4.293
			c-2.143-1.502-5.146-2.251-8.896-2.251h-3.973v-3.002h97.799v32.065h-3.215c-1.715-7.828-3.969-13.407-7.074-16.836
			c-3.006-3.433-7.189-5.901-12.768-7.51c-3.215-0.96-9.219-1.391-18.119-1.391L564.708,58.551L564.708,58.551z"/>
		<path fill="#FFFFFF" d="M394.09,95.227h0.65c6.109,0,11.043,4.823,11.043,10.616l0,0c0,5.792-4.934,10.508-11.043,10.508h-0.65
			c-6.105,0-11.042-4.715-11.042-10.508l0,0C383.048,100.05,387.985,95.227,394.09,95.227z"/>
	</g>
</g>
</svg>
