<?xml version="1.0" encoding="utf-8"?>
<!-- Generator: Adobe Illustrator 17.0.0, SVG Export Plug-In . SVG Version: 6.00 Build 0)  -->
<!DOCTYPE svg PUBLIC "-//W3C//DTD SVG 1.1//EN" "http://www.w3.org/Graphics/SVG/1.1/DTD/svg11.dtd" [
	<!ENTITY ns_extend "http://ns.adobe.com/Extensibility/1.0/">
	<!ENTITY ns_ai "http://ns.adobe.com/AdobeIllustrator/10.0/">
	<!ENTITY ns_graphs "http://ns.adobe.com/Graphs/1.0/">
	<!ENTITY ns_vars "http://ns.adobe.com/Variables/1.0/">
	<!ENTITY ns_imrep "http://ns.adobe.com/ImageReplacement/1.0/">
	<!ENTITY ns_sfw "http://ns.adobe.com/SaveForWeb/1.0/">
	<!ENTITY ns_custom "http://ns.adobe.com/GenericCustomNamespace/1.0/">
	<!ENTITY ns_adobe_xpath "http://ns.adobe.com/XPath/1.0/">
]>
<svg version="1.1" id="Layer_1" xmlns:x="&ns_extend;" xmlns:i="&ns_ai;" xmlns:graph="&ns_graphs;"
	 xmlns="http://www.w3.org/2000/svg" xmlns:xlink="http://www.w3.org/1999/xlink" x="0px" y="0px" width="674.111px"
	 height="123.122px" viewBox="0 0 674.111 123.122" enable-background="new 0 0 674.111 123.122" xml:space="preserve">
<metadata>
	<sfw  xmlns="&ns_sfw;">
		<slices></slices>
		<sliceSourceBounds  width="657.052" height="108.537" x="-39.582" y="594.171" bottomLeftOrigin="true"></sliceSourceBounds>
	</sfw>
</metadata>
<g>
	<g>
		<path fill="#99000F" d="M65.269,112.235l-5.879-20.85H38.146l-5.947,20.85H11.167l24.638-87.92c2.716-9.57,8.568-11.578,13-11.578
			c4.396,0,10.218,2.005,12.995,11.559l24.643,87.939H65.269z M53.751,71.048L48.804,53.49l-4.947,17.558H53.751z"/>
		<path fill="#FFFFFF" d="M48.804,14.737c5.423,0,9.114,3.373,11.074,10.117l23.926,85.381H66.783l-5.879-20.85H36.636l-5.947,20.85
			H13.804L37.73,24.854C39.644,18.11,43.336,14.737,48.804,14.737 M41.216,73.048h15.176l-7.588-26.934L41.216,73.048
			 M48.804,10.737c-5.121,0-11.867,2.26-14.922,13.025L9.953,109.156l-1.423,5.079h5.275h16.885h3.019l0.828-2.903l5.119-17.947
			h18.221l5.057,17.935l0.822,2.914h3.028h17.021h5.275l-1.423-5.079L63.73,23.775C60.597,12.993,53.885,10.737,48.804,10.737
			L48.804,10.737z M46.499,69.048l2.305-8.183l2.305,8.183H46.499L46.499,69.048z"/>
	</g>
	<g>
		<polygon fill="#99000F" points="94.609,112.235 94.609,33.075 75.947,33.075 75.947,12.737 133.609,12.737 133.609,33.075 
			114.947,33.075 114.947,112.235 		"/>
		<path fill="#FFFFFF" d="M131.609,14.737v16.338h-18.662v79.16H96.609v-79.16H77.947V14.737H131.609 M135.609,10.737h-4H77.947h-4
			v4v16.338v4h4h14.662v75.16v4h4h16.338h4v-4v-75.16h14.662h4v-4V14.737V10.737L135.609,10.737z"/>
	</g>
	<g>
		<path fill="#99000F" d="M177.213,112.235l-5.879-20.85H150.09l-5.947,20.85h-21.032l24.638-87.92
			c2.716-9.57,8.568-11.578,13-11.578c4.396,0,10.218,2.005,12.995,11.559l24.643,87.939H177.213z M165.695,71.048l-4.947-17.558
			l-4.947,17.558H165.695z"/>
		<path fill="#FFFFFF" d="M160.749,14.737c5.423,0,9.114,3.373,11.074,10.117l23.926,85.381h-17.021l-5.879-20.85h-24.268
			l-5.947,20.85h-16.885l23.926-85.381C151.588,18.11,155.28,14.737,160.749,14.737 M153.161,73.048h15.176l-7.588-26.934
			L153.161,73.048 M160.749,10.737c-5.121,0-11.867,2.26-14.922,13.025l-23.929,85.394l-1.423,5.079h5.275h16.885h3.019l0.828-2.903
			l5.119-17.947h18.221l5.057,17.935l0.822,2.914h3.028h17.021h5.275l-1.423-5.079l-23.926-85.381
			C172.541,12.993,165.829,10.737,160.749,10.737L160.749,10.737z M158.443,69.048l2.305-8.183l2.305,8.183H158.443L158.443,69.048z
			"/>
	</g>
	<g>
		<path fill="#99000F" d="M247.849,112.235L227.64,80.689c-0.215-0.332-0.423-0.658-0.623-0.979v32.525h-20.338V25.196
			c0-3.317,1.255-6.253,3.73-8.729c2.475-2.476,5.435-3.73,8.797-3.73h18.662c7.508,0,14.246,2.734,20.026,8.125
			c5.817,5.378,8.771,11.944,8.771,19.509c0,6.947-2.283,13.367-6.787,19.08c-3.897,4.956-8.773,8.702-14.517,11.159l26.208,41.624
			H247.849z M227.017,58.708c0.838-0.922,1.806-1.786,2.904-2.588l0.105-0.077l0.114-0.063c1.898-1.039,3.771-2.09,5.569-3.124
			c1.81-1.041,3.666-2.082,5.566-3.124c3.445-2.305,5.121-4.987,5.121-8.2c0-2.156-0.859-4.063-2.627-5.832
			c-1.768-1.768-3.698-2.627-5.9-2.627h-10.852V58.708z"/>
		<path fill="#FFFFFF" d="M237.869,14.737c7.018,0,13.238,2.529,18.662,7.588c5.423,5.014,8.135,11.029,8.135,18.047
			c0,6.518-2.119,12.465-6.357,17.842c-4.193,5.332-9.502,9.138-15.928,11.416l25.566,40.605h-19.004L229.324,79.61
			c-2.871-4.42-4.307-7.884-4.307-10.391c0-4.693,2.027-8.521,6.084-11.484c1.914-1.048,3.782-2.096,5.605-3.145
			c1.822-1.048,3.691-2.096,5.605-3.145c4.056-2.688,6.084-5.992,6.084-9.912c0-2.688-1.071-5.104-3.213-7.246
			c-2.143-2.142-4.58-3.213-7.314-3.213h-12.852V69.22v41.016h-16.338V25.196c0-2.779,1.048-5.218,3.145-7.314
			c2.096-2.096,4.557-3.145,7.383-3.145H237.869 M237.869,10.737h-18.662c-3.912,0-7.347,1.452-10.211,4.316
			s-4.316,6.276-4.316,10.143v85.039v4h4h16.338h4v-4V86.547l16.558,25.846l1.18,1.842h2.188h19.004h7.245l-3.86-6.131
			l-23.065-36.633c5.143-2.565,9.564-6.179,13.186-10.784c4.785-6.071,7.213-12.907,7.213-20.315c0-8.145-3.169-15.205-9.419-20.984
			C253.096,13.652,245.899,10.737,237.869,10.737L237.869,10.737z M229.017,35.075h8.852c1.667,0,3.093,0.649,4.487,2.042
			c1.392,1.392,2.041,2.796,2.041,4.417c0,1.583-0.435,3.971-4.162,6.49c-1.9,1.043-3.757,2.085-5.522,3.1
			c-1.786,1.027-3.647,2.071-5.532,3.104l-0.163,0.089V35.075L229.017,35.075z"/>
	</g>
	<g>
		<rect x="278.976" y="12.737" fill="#99000F" width="20.338" height="99.498"/>
		<path fill="#FFFFFF" d="M297.314,14.737v95.498h-16.338V14.737H297.314 M301.314,10.737h-4h-16.338h-4v4v95.498v4h4h16.338h4v-4
			V14.737V10.737L301.314,10.737z"/>
	</g>
	<g>
		<path fill="#99000F" d="M458.115,113.829c-5.075,0-10.244-0.563-15.363-1.673c-5.166-1.12-10.014-2.902-14.409-5.296
			c-4.512-2.456-8.213-5.79-11.001-9.91c-2.836-4.187-4.273-9.186-4.273-14.857c0-6.642,1.814-12.15,5.395-16.373
			c2.336-2.755,5.354-4.896,9.015-6.4c-2.606-1.279-4.811-3.003-6.589-5.16c-2.102-2.545-3.495-5.526-4.167-8.899l-36.345,65.949
			h-43.917l40.782-66.128h-37.429V11.629h95.445l-1.711,3.104c1.042-0.507,2.124-0.978,3.243-1.412
			c6.284-2.484,13.559-3.746,21.609-3.746c8.049,0,15.31,1.25,21.581,3.714c6.38,2.508,11.407,6.105,14.942,10.694
			c0.976,1.265,1.824,2.596,2.542,3.982c1.125-1.679,2.348-3.253,3.656-4.704c4.104-4.548,9.125-8.055,14.925-10.424
			c5.762-2.354,12.317-3.547,19.484-3.547c7.164,0,13.74,1.192,19.548,3.545c5.839,2.365,10.892,5.818,15.016,10.264
			c2.305,2.483,4.325,5.298,6.033,8.401c1.651-3.027,3.596-5.788,5.807-8.239c4.104-4.548,9.125-8.055,14.925-10.424
			c5.762-2.354,12.317-3.547,19.484-3.547c7.164,0,13.74,1.192,19.548,3.545c5.839,2.365,10.892,5.818,15.016,10.264
			c4.115,4.435,7.296,9.867,9.453,16.145c2.139,6.226,3.224,13.209,3.224,20.757c0,8.013-1.069,15.368-3.178,21.858
			c-2.13,6.563-5.306,12.225-9.44,16.826c-4.144,4.614-9.222,8.192-15.092,10.635c-5.836,2.427-12.407,3.657-19.53,3.657
			c-6.985,0-13.439-1.219-19.181-3.624c-5.769-2.415-10.794-5.94-14.937-10.479c-2.358-2.581-4.421-5.487-6.16-8.673
			c-1.674,3.127-3.654,5.969-5.912,8.483c-4.145,4.614-9.223,8.192-15.093,10.635c-5.836,2.427-12.407,3.657-19.53,3.657
			c-6.985,0-13.439-1.219-19.181-3.624c-5.769-2.415-10.794-5.94-14.936-10.479c-0.656-0.718-1.299-1.475-1.925-2.268
			c-0.489,0.813-1.017,1.595-1.581,2.339c-3.688,4.866-9.029,8.617-15.875,11.146C475.326,112.573,467.279,113.829,458.115,113.829z
			 M458.398,71.208c-2.211,0-3.901,0.686-5.168,2.097c-1.322,1.473-1.965,3.167-1.965,5.178c0,1.964,0.632,3.624,1.931,5.072
			c1.243,1.388,2.945,2.062,5.202,2.062c2.077,0,3.633-0.665,4.755-2.031c1.278-1.472,1.882-3.173,1.882-5.245
			c0-2.076-0.585-3.771-1.787-5.181C462.127,71.847,460.541,71.208,458.398,71.208z M616.625,43.312
			c-2.946,0-5.208,1.414-6.913,4.322c-1.886,3.211-2.841,7.873-2.841,13.856c0,6.17,0.968,10.952,2.876,14.211
			c1.729,2.955,4.095,4.392,7.231,4.392c2.719,0,4.727-1.347,6.318-4.239c1.763-3.202,2.656-7.749,2.656-13.514
			c0-6.431-0.897-11.365-2.667-14.667C621.691,44.698,619.575,43.312,616.625,43.312z M535.812,43.312
			c-2.946,0-5.208,1.414-6.913,4.322c-1.886,3.211-2.841,7.873-2.841,13.856c0,6.17,0.968,10.952,2.876,14.211
			c1.729,2.955,4.095,4.392,7.231,4.392c2.719,0,4.727-1.347,6.318-4.239c1.763-3.202,2.656-7.749,2.656-13.514
			c0-6.431-0.897-11.365-2.667-14.667C540.878,44.698,538.762,43.312,535.812,43.312z M458.752,38.568
			c-1.683,0-2.966,0.522-3.923,1.596c-1.017,1.142-1.511,2.42-1.511,3.909c0,1.343,0.435,2.481,1.329,3.479
			c0.792,0.888,1.926,1.317,3.468,1.317c1.601,0,2.775-0.491,3.696-1.546c0.979-1.12,1.454-2.368,1.454-3.817
			c0-1.503-0.398-2.698-1.218-3.654C461.296,38.977,460.249,38.568,458.752,38.568z"/>
		<path fill="#FFFFFF" d="M616.341,11.292c6.938,0,13.203,1.133,18.797,3.398s10.359,5.522,14.301,9.771s6.951,9.393,9.027,15.435
			c2.076,6.042,3.115,12.744,3.115,20.107c0,7.836-1.025,14.916-3.08,21.24c-2.053,6.326-5.061,11.694-9.025,16.107
			c-3.965,4.414-8.758,7.788-14.373,10.125c-5.617,2.336-11.871,3.504-18.762,3.504c-6.752,0-12.887-1.156-18.408-3.469
			c-5.523-2.313-10.268-5.64-14.232-9.982c-3.141-3.438-5.688-7.41-7.657-11.903c-1.909,4.46-4.366,8.37-7.38,11.725
			c-3.965,4.414-8.758,7.788-14.373,10.125c-5.617,2.336-11.871,3.504-18.762,3.504c-6.752,0-12.887-1.156-18.408-3.469
			c-5.523-2.313-10.268-5.64-14.232-9.982c-1.338-1.464-2.56-3.033-3.686-4.689c-0.774,1.724-1.726,3.364-2.891,4.901
			c-3.471,4.579-8.461,8.071-14.975,10.479s-14.256,3.61-23.223,3.61c-4.957,0-9.938-0.543-14.939-1.628
			c-5.004-1.085-9.629-2.784-13.877-5.098c-4.248-2.313-7.682-5.404-10.301-9.274c-2.621-3.87-3.93-8.449-3.93-13.736
			c0-6.183,1.639-11.209,4.92-15.08c3.281-3.87,8.012-6.396,14.195-7.576c-5.051-0.99-8.969-3.174-11.752-6.549
			c-2.785-3.374-4.178-7.563-4.178-12.567c0-0.723,0.029-1.434,0.084-2.136l-39.143,71.025h-39.153l40.782-66.128h-39.012V13.629
			h90.059l-3.77,6.84c2.661-2.112,5.791-3.879,9.41-5.282c6.09-2.407,13.051-3.611,20.887-3.611c7.834,0,14.785,1.192,20.85,3.576
			c6.064,2.384,10.762,5.734,14.09,10.054c1.708,2.216,2.97,4.599,3.801,7.145c1.559-2.841,3.376-5.429,5.466-7.747
			c3.918-4.342,8.648-7.646,14.195-9.912c5.547-2.266,11.789-3.398,18.728-3.398c6.938,0,13.203,1.133,18.797,3.398
			c5.594,2.266,10.359,5.522,14.301,9.771c3.071,3.31,5.568,7.172,7.507,11.57c1.896-4.335,4.322-8.145,7.284-11.428
			c3.918-4.342,8.648-7.646,14.195-9.912S609.402,11.292,616.341,11.292 M458.115,50.87c2.17,0,3.904-0.743,5.203-2.23
			c1.299-1.486,1.947-3.197,1.947-5.133c0-1.982-0.566-3.634-1.699-4.956c-1.133-1.321-2.738-1.982-4.814-1.982
			c-2.266,0-4.07,0.755-5.416,2.266c-1.346,1.511-2.018,3.257-2.018,5.239c0,1.841,0.613,3.446,1.84,4.814
			C454.337,50.209,455.99,50.87,458.115,50.87 M616.978,82.093c3.445,0,6.135-1.758,8.07-5.274
			c1.936-3.516,2.904-8.342,2.904-14.479c0-6.797-0.969-12.001-2.904-15.611c-1.936-3.611-4.742-5.417-8.424-5.417
			s-6.563,1.77-8.639,5.31c-2.078,3.54-3.115,8.496-3.115,14.868c0,6.562,1.051,11.636,3.15,15.222
			C610.121,80.3,613.107,82.093,616.978,82.093 M536.166,82.093c3.445,0,6.135-1.758,8.07-5.274
			c1.936-3.516,2.904-8.342,2.904-14.479c0-6.797-0.969-12.001-2.904-15.611c-1.936-3.611-4.742-5.417-8.424-5.417
			s-6.563,1.77-8.639,5.31c-2.078,3.54-3.115,8.496-3.115,14.868c0,6.562,1.051,11.636,3.15,15.222
			C529.308,80.3,532.295,82.093,536.166,82.093 M490.592,62.469c-0.007-0.421-0.022-0.836-0.022-1.262
			c0-1.767,0.061-3.49,0.169-5.178c-2.109,1.381-4.689,2.523-7.772,3.407C485.849,60.229,488.381,61.246,490.592,62.469
			 M458.398,87.616c2.689,0,4.789-0.921,6.301-2.762c1.559-1.793,2.336-3.965,2.336-6.514s-0.756-4.708-2.266-6.479
			c-1.51-1.77-3.635-2.654-6.371-2.654c-2.785,0-5.004,0.92-6.656,2.761c-1.652,1.841-2.477,4.013-2.477,6.514
			c0,2.455,0.813,4.591,2.441,6.407C453.336,86.707,455.566,87.616,458.398,87.616 M616.341,7.292
			c-7.428,0-14.238,1.243-20.241,3.695c-6.08,2.483-11.346,6.163-15.653,10.935c-1.577,1.748-3.023,3.645-4.331,5.676
			c-1.371-2.106-2.893-4.064-4.558-5.859c-4.326-4.662-9.618-8.281-15.731-10.757c-6.047-2.449-12.876-3.691-20.299-3.691
			c-7.428,0-14.238,1.243-20.241,3.695c-6.08,2.483-11.346,6.163-15.653,10.935c-0.693,0.768-1.362,1.568-2.008,2.399
			c-0.355-0.53-0.729-1.049-1.122-1.559c-3.759-4.879-9.074-8.693-15.795-11.335c-6.506-2.557-14.013-3.853-22.313-3.853
			c-7.47,0-14.308,1.06-20.361,3.152l0.606-1.099h-6.772h-90.059h-4v4v29.453v4h4h31.846l-37.02,60.028l-3.762,6.1h7.166h39.153
			h2.363l1.14-2.069l33.513-60.81c0.801,1.84,1.847,3.544,3.135,5.104c1.159,1.406,2.479,2.643,3.953,3.71
			c-2.463,1.427-4.589,3.19-6.363,5.282c-3.894,4.595-5.869,10.538-5.869,17.667c0,6.079,1.554,11.455,4.618,15.979
			c2.968,4.386,6.905,7.934,11.7,10.545c4.563,2.485,9.59,4.333,14.942,5.494c5.258,1.14,10.569,1.719,15.787,1.719
			c9.402,0,17.682-1.298,24.609-3.858c7.209-2.664,12.853-6.639,16.776-11.814c0.057-0.075,0.113-0.15,0.169-0.225
			c0.089,0.099,0.178,0.197,0.267,0.295c4.34,4.753,9.602,8.446,15.641,10.974c5.987,2.508,12.701,3.779,19.953,3.779
			c7.388,0,14.218-1.282,20.298-3.811c6.148-2.559,11.468-6.309,15.813-11.145c1.621-1.804,3.103-3.767,4.439-5.876
			c1.401,2.178,2.961,4.21,4.669,6.079c4.34,4.753,9.602,8.446,15.641,10.974c5.987,2.508,12.701,3.779,19.953,3.779
			c7.388,0,14.218-1.282,20.298-3.811c6.148-2.559,11.468-6.309,15.813-11.145c4.322-4.81,7.637-10.714,9.854-17.546
			c2.173-6.689,3.275-14.251,3.275-22.475c0-7.769-1.121-14.971-3.332-21.407c-2.249-6.544-5.572-12.215-9.878-16.855
			c-4.326-4.662-9.618-8.281-15.731-10.757C630.593,8.534,623.764,7.292,616.341,7.292L616.341,7.292z M458.115,46.87
			c-1.396,0-1.8-0.453-1.973-0.646c-0.572-0.638-0.824-1.299-0.824-2.151c0-1.003,0.31-1.799,1.005-2.579
			c0.407-0.457,1.015-0.926,2.429-0.926c1.275,0,1.628,0.411,1.778,0.587c0.315,0.368,0.735,1.013,0.735,2.352
			c0,0.97-0.296,1.742-0.959,2.501C459.933,46.435,459.382,46.87,458.115,46.87L458.115,46.87z M616.978,78.093
			c-2.431,0-4.128-1.049-5.505-3.401c-1.727-2.95-2.603-7.391-2.603-13.201c0-5.623,0.863-9.944,2.565-12.843
			c1.734-2.956,3.684-3.335,5.189-3.335c1.546,0,3.337,0.393,4.898,3.306c1.612,3.008,2.43,7.624,2.43,13.722
			c0,5.425-0.81,9.647-2.408,12.549C619.991,77.712,618.364,78.093,616.978,78.093L616.978,78.093z M536.166,78.093
			c-2.431,0-4.128-1.049-5.505-3.401c-1.727-2.95-2.603-7.391-2.603-13.201c0-5.623,0.863-9.944,2.565-12.843
			c1.734-2.956,3.684-3.335,5.189-3.335c1.546,0,3.337,0.393,4.898,3.306c1.612,3.008,2.43,7.624,2.43,13.722
			c0,5.425-0.81,9.647-2.408,12.549C539.178,77.712,537.552,78.093,536.166,78.093L536.166,78.093z M458.398,83.616
			c-2.206,0-3.176-0.797-3.713-1.396c-0.969-1.081-1.42-2.268-1.42-3.737c0-1.516,0.462-2.737,1.453-3.842
			c0.599-0.667,1.558-1.433,3.68-1.433c2.004,0,2.831,0.668,3.328,1.251c0.892,1.047,1.309,2.281,1.309,3.882
			c0,1.59-0.43,2.826-1.355,3.889l-0.037,0.042l-0.036,0.043C461.11,82.921,460.296,83.616,458.398,83.616L458.398,83.616z"/>
	</g>
</g>
</svg>
