<?xml version="1.0" encoding="utf-8"?>
<!-- Generator: Adobe Illustrator 13.0.0, SVG Export Plug-In . SVG Version: 6.00 Build 14948)  -->
<!DOCTYPE svg PUBLIC "-//W3C//DTD SVG 1.1//EN" "http://www.w3.org/Graphics/SVG/1.1/DTD/svg11.dtd">
<svg version="1.1" id="Layer_1" xmlns="http://www.w3.org/2000/svg" xmlns:xlink="http://www.w3.org/1999/xlink" x="0px" y="0px"
	 width="791.34px" height="159.455px" viewBox="0 0 791.34 159.455" enable-background="new 0 0 791.34 159.455"
	 xml:space="preserve">
<path fill="#F9F9F9" d="M135.654,149.142V3.568h-24.195l0.397,93.613L0,4.76l0.396,145.97H21.42V56.325L135.654,149.142
	L135.654,149.142z M151.126,151.521l18.645-31.733h-17.059V97.579h28.163L232.043,4.76l81.715,146.761h-28.957l-16.658-31.734
	h-72.587l-17.453,31.734H151.126L151.126,151.521z M205.469,97.181h52.358l-26.18-47.999L205.469,97.181z M520.815,151.521h-23.798
	V5.153l80.917,94.007l81.708-95.986v148.347h-25.39l-0.391-79.728l-56.327,67.831l-56.721-67.438L520.815,151.521L520.815,151.521z
	 M705.657,151.521l0.396-149.936h24.194l-0.394,149.936H705.657L705.657,151.521z M752.465,26.179V5.153h-6.74V1.186h18.642v3.968
	h-7.146v21.025H752.465z M765.553,25.78V1.186h6.74l7.143,15.473l6.74-15.473h5.163v24.993h-4.766V9.914l-6.741,16.265
	l-9.521-16.265v16.265L765.553,25.78L765.553,25.78z"/>
<path fill="#F47A20" d="M312.965,79.729C312.965,35.7,348.664,0,392.698,0c44.025,0,79.727,35.7,79.727,79.729
	c0,44.025-35.7,79.727-79.727,79.727C348.663,159.454,312.965,123.754,312.965,79.729z M392.698,135.657
	c30.94,0,55.92-24.993,55.92-55.929c0-30.541-24.984-55.534-55.92-55.534c-30.546,0-55.538,24.993-55.538,55.534
	C337.16,110.664,362.147,135.657,392.698,135.657z"/>
</svg>
