<?xml version="1.0" encoding="utf-8"?>
<!-- Generator: Adobe Illustrator 13.0.0, SVG Export Plug-In . SVG Version: 6.00 Build 14948)  -->
<!DOCTYPE svg PUBLIC "-//W3C//DTD SVG 1.1//EN" "http://www.w3.org/Graphics/SVG/1.1/DTD/svg11.dtd">
<svg version="1.1" id="Ebene_1" xmlns="http://www.w3.org/2000/svg" xmlns:xlink="http://www.w3.org/1999/xlink" x="0px" y="0px"
	 width="566.93px" height="170.079px" viewBox="0 -13.883 566.93 170.079" enable-background="new 0 -13.883 566.93 170.079"
	 xml:space="preserve">
<path fill="#404040" d="M240.575,77.262c-14.878,14.885-14.878,39.008,0,53.895c14.885,14.877,39.008,14.877,53.893,0
	c12.872-12.871,14.604-32.656,5.22-47.393l-20.5,20.5c-0.017,2.971-1.15,5.934-3.414,8.193c-4.558,4.551-11.944,4.551-16.502,0
	c-4.55-4.558-4.55-11.941,0-16.5c4.558-4.551,11.944-4.551,16.502,0l0.351,0.371l18.705-18.704l-0.355-0.364
	C279.583,62.385,255.46,62.385,240.575,77.262z"/>
<path fill="#898989" d="M92.1,142.161l92.102-104.84h-38.434l-58.87,59.936c-1.797,1.828-4.713,1.828-6.509,0
	c-1.797-1.824-1.797-4.797,0-6.633l52.36-53.3H0L92.1,142.161z"/>
<path fill="#404040" d="M503.135,104.038l-31.895,37.5h26.063l24.832-25.281c1.438-1.463,3.771-1.463,5.211,0
	c1.438,1.461,1.438,3.834,0,5.307l-19.621,19.979h59.205l-31.895-37.502l31.895-37.499h-26.063l-24.832,25.282
	c-1.438,1.471-3.771,1.471-5.211,0c-1.438-1.462-1.438-3.832,0-5.304l19.621-19.979H471.24L503.135,104.038z"/>
<path fill="#404040" d="M356.34,66.539v75h23.938V92.793h18.15l22.325-26.254h-26.062l-24.839,25.282
	c-1.431,1.471-3.765,1.471-5.202,0c-1.438-1.462-1.438-3.833,0-5.304l19.62-19.979L356.34,66.539L356.34,66.539z"/>
<path fill="#404040" d="M338.493,66.857h14.467l23.892-24.691h-38.354V0l-58.35,66.857h25.518l17.475-16.23
	c1.438-1.462,3.771-1.462,5.203,0c1.438,1.472,1.438,3.842,0,5.306L314.56,69.969v71.571h23.938V66.857H338.493z"/>
<path fill="#404040" d="M158.919,77.262c-14.877,14.885-14.877,39.008,0,53.895c14.886,14.877,39.009,14.877,53.894,0
	c12.871-12.871,14.604-32.656,5.218-47.393l-20.5,20.5c-0.016,2.971-1.15,5.934-3.413,8.193c-3.741,3.732-9.38,4.4-13.797,2.018
	l34.747-34.747c-0.599-0.715-4.425-4.512-5.575-5.42C194.537,62.456,172.738,63.443,158.919,77.262z M175.094,108.704
	c-1.766-4.229-0.926-9.301,2.52-12.744s8.517-4.287,12.746-2.521L175.094,108.704z"/>
<path fill="#404040" d="M418.663,77.262c-14.877,14.885-14.877,39.008,0,53.895c14.889,14.877,39.012,14.877,53.896,0
	c12.871-12.871,14.604-32.656,5.221-47.393l-20.5,20.5c-0.018,2.971-1.148,5.934-3.414,8.193c-3.739,3.732-9.379,4.4-13.795,2.018
	l34.746-34.747c-0.602-0.715-4.428-4.512-5.576-5.42C454.282,62.456,432.484,63.443,418.663,77.262z M434.84,108.704
	c-1.768-4.229-0.928-9.301,2.52-12.744c3.446-3.443,8.52-4.287,12.746-2.521L434.84,108.704z"/>
</svg>
