<?xml version="1.0" encoding="UTF-8"?>
<!-- Generator: Adobe Illustrator 19.2.1, SVG Export Plug-In . SVG Version: 6.00 Build 0)  -->
<svg version="1.1" id="Logo_x5F_4c_x5F_neg" xmlns="http://www.w3.org/2000/svg" xmlns:xlink="http://www.w3.org/1999/xlink" x="0px" y="0px" viewBox="0 0 399.9 262" style="enable-background:new 0 0 399.9 262;" xml:space="preserve">
<style type="text/css">
	.st0{fill:#F7A600;}
	.st1{fill:#9C9C9C;}
	.st2{fill:#FFFFFF;}
	.st3{fill:none;}
</style>
<g>
	<g>
		<g>
			<g>
				<path class="st0" d="M80.8,193.3c-7.1,0-18.7,0-18.7,0v18.3h5.8v-12.2c0-0.8,0.6-1.4,1.4-1.4h10c0.8,0,1.4,0.6,1.4,1.4v12.2h5.8      v-12.2C86.6,199.3,87.4,193.3,80.8,193.3z"/>
				<path class="st0" d="M242.3,193.3c-6.8,0-18.7,0-18.7,0v18.3h5.9v-12.2c0-0.8,0.6-1.4,1.3-1.4h10.1c0.8,0,1.4,0.6,1.4,1.4v12.2      h5.8v-12.2C248.1,199.3,248.9,193.3,242.3,193.3z"/>
				<path class="st0" d="M330.3,193.3c-6.8,0-18.7,0-18.7,0v18.3h5.8v-12.2c0-0.8,0.6-1.4,1.4-1.4h10.1c0.8,0,1.4,0.6,1.4,1.4v12.2      h5.8v-12.2C336.1,199.3,336.9,193.3,330.3,193.3z"/>
				<path class="st0" d="M89.2,197.9h6.4c0.6,0,1.4,0.6,1.4,1.4v12.2h6.2v-12.2c0-0.8,0.6-1.4,1.4-1.4h6.4v-4.6H89.2V197.9z"/>
				<path class="st0" d="M338.6,193.3v4.6h6.4c0.8,0,1.4,0.6,1.4,1.4v12.2h6.5v-12.2c0-0.8,0.5-1.4,1.3-1.4h6.4v-4.6H338.6z"/>
				<path class="st0" d="M162.8,197.9h6.4c0.8,0,1.4,0.6,1.4,1.4v12.2h6.4v-12.2c0-0.8,0.6-1.4,1.4-1.4h6.4v-4.6h-22.2V197.9z"/>
				<rect x="213.6" y="193.3" class="st0" width="6.2" height="18.3"/>
				<path class="st0" d="M203.5,193.3h-10.2c-6.6,0-6.1,6.1-6.1,6.1v0.8v11.5h5.9v-4.6h10.4v4.6h5.9v-11.5v-0.8      C209.6,199.3,210.3,193.3,203.5,193.3z M203.6,202.3h-10.4v-2.2v-1c0-0.5,0.8-1.2,1.2-1.2h7.9c0.9,0,1.4,0.6,1.4,1.2v1V202.3z"/>
				<path class="st0" d="M154.4,193.3h-16.5v6.7v11.6h6.1v-3.5c0-0.8,0.5-1.2,1.3-1.2h8.1c0.4,0,1.2,0.6,1.2,1.2v3.5h5.8v-2.8      c0,0,0.5-2.6-2.2-4.4c1.8-1.3,2.4-3.2,2.6-4.4c0.1-0.5,0.1-0.9,0.1-0.9S160.8,193.3,154.4,193.3z M154.5,200.9      c0,0.9-0.4,1.4-1.2,1.4h-8.5c-0.4,0-0.9-0.5-0.9-1.4V200v-0.9c0-0.8,0.5-1.4,1.3-1.4h8.1c0.8,0,1.2,0.4,1.2,1.4v0.9V200.9z"/>
				<path class="st0" d="M37.8,205.5c0,0-0.6,6.1,6.1,6.1h14.4v-4.6H44.9c-0.9,0-1.7-0.8-1.7-1.5c0-0.9,0.6-1.4,1.7-1.4h12.6v-3.2      H44.6c-0.8,0-1.4-0.6-1.4-1.4c0-0.8,0.6-1.4,1.4-1.4h13.7v-4.6H37.8V205.5z"/>
				<path class="st0" d="M113.8,205.5c0,0-0.9,6.1,5.8,6.1H134v-4.6h-13.4c-0.9,0-1.7-0.8-1.7-1.5c0-0.9,0.8-1.4,1.7-1.4h12.6v-3.2      h-12.6c-0.9,0-1.7-0.6-1.7-1.4c0-0.8,0.8-1.4,1.7-1.4H134v-4.6h-20.2V205.5z"/>
				<path class="st0" d="M287.5,205.5c0,0-0.6,6.1,5.9,6.1H308v-4.6h-13.5c-0.8,0-1.5-0.8-1.5-1.5c0-0.9,0.5-1.4,1.4-1.4H307v-3.2      h-12.6c-0.9,0-1.4-0.6-1.4-1.4c0-0.8,0.5-1.4,1.4-1.4H308v-4.6h-20.5V205.5z"/>
				<path class="st0" d="M277.9,193.3c-6.8,0-25.9,0-25.9,0v18.3h5.4v-12.2c0-0.8,0.6-1.4,1.4-1.4h4.4c0.8,0,1.4,0.6,1.4,1.4v12.2      h6.1v-12.2c0-0.8,0.5-1.4,1.4-1.4h4.6c0.5,0,1.2,0.6,1.2,1.4l0.3,12.2h5.8v-12.2C284,199.4,284.7,193.3,277.9,193.3z"/>
			</g>
			<g>
				<g>
					<path class="st0" d="M195.5,223.4h6.6c0.5,0,1.2,0.6,1.2,1.4v12.2h6.4l0.3-12.2c0-0.8,0.4-1.4,1.2-1.4h6.4v-4.6h-22V223.4z"/>
					<path class="st0" d="M270,218.8c-6.8,0-25.9,0-25.9,0v18.3h5.4v-12.2c0-0.8,0.6-1.4,1.4-1.4h4.4c0.8,0,1.4,0.6,1.4,1.4v12.2h6       v-12.2c0-0.8,0.5-1.4,1.4-1.4h4.6c0.5,0,1.2,0.6,1.2,1.4l0.3,12.2h5.8v-12.2C276.1,224.8,276.8,218.8,270,218.8z"/>
					<path class="st0" d="M169,218.8h-5.5v6.8c0,0.8-0.8,1.4-1.4,1.4h-8.2c-0.8,0-1.4-0.6-1.4-1.4v-6.8h-5.8v6.7       c0,0-0.6,6.2,6.1,6.2h1.9v5.4h6.4v-5.4h2.2c6.7,0,5.8-6.1,5.8-6.1V218.8z"/>
					<path class="st0" d="M220,231c0,0-0.9,6.1,5.8,6.1h14.4v-4.6h-13.4c-0.9,0-1.7-0.6-1.7-1.5c0-0.9,0.8-1.3,1.7-1.3h12.6v-3.2       h-12.6c-0.9,0-1.7-0.8-1.7-1.6c0-0.8,0.8-1.4,1.7-1.4h13.4v-4.6H220V231z"/>
					<path class="st0" d="M187.5,226.3h-8.6c-1,0-1.7-0.4-1.7-1.3c0-0.8,0.6-1.5,1.4-1.5h14.7v-4.6h-16.1c-3,0-5.5,2.5-5.5,5.3       c0,4,2.6,5.5,6.1,5.5h8.6c0.9,0,1.8,0.4,1.8,1.3c0,0.8-0.6,1.5-1.4,1.5h-15.1v4.6h16.5c2.7,0,5.5-2.2,5.5-5.3       C193.7,228.1,190.7,226.3,187.5,226.3z"/>
					<path class="st0" d="M138.4,226.3H130c-1,0-1.8-0.4-1.8-1.3c0-0.8,0.8-1.5,1.5-1.5h14.7v-4.6h-16.1c-3.2,0-5.8,2.5-5.8,5.3       c0,4,2.8,5.5,6.3,5.5h8.4c1,0,1.8,0.4,1.8,1.3c0,0.8-0.8,1.5-1.5,1.5h-14.9v4.6h16.5c3,0,5.7-2.2,5.7-5.3       C144.7,228.1,141.9,226.3,138.4,226.3z"/>
				</g>
			</g>
			<g>
				<path class="st0" d="M283.4,218.8v0.8h-2.1v5.6h-0.9v-5.6h-2.1v-0.8H283.4z"/>
				<path class="st0" d="M284.2,218.8h1.2l1.8,5.4l1.8-5.4h1.2v6.4h-0.8v-3.8c0-0.1,0-0.3,0-0.6c0-0.3,0-0.6,0-1l-1.8,5.4h-0.9      l-1.8-5.4v0.2c0,0.2,0,0.4,0,0.7c0,0.3,0,0.6,0,0.7v3.8h-0.8V218.8z"/>
			</g>
		</g>
		<g>
			<g>
				<g>
					<path class="st1" d="M312.2,173.1H86.1c-28.6,0-50.1-20.5-50.1-47.7c0-27.3,21.5-47.9,50-47.9l226.3,0       c28.6,0,50.1,20.6,50.1,47.9C362.4,152.6,340.8,173.1,312.2,173.1z"/>
				</g>
			</g>
			<g>
				<path class="st2" d="M102.8,132.3l-15.3-24.8H76.4l0,35.5h11v-24.8l15.4,24.8h11v-35.5h-11L102.8,132.3z M189.9,119.4v-3.5h-5.8      v-4.8h-10.7l0,4.8l-5.8,0v3.5h5.8l0,23.6h10.7l0-23.6H189.9z M119.9,143h10.7v-23.6h-10.7V143z M119.9,114.7h10.7v-7.3h-10.7      V114.7z M307,117.8c-8.6,0-15.6,5.9-15.6,13.3c0,7.3,7,13.3,15.6,13.3c8.6,0,15.6-5.9,15.6-13.3      C322.6,123.7,315.7,117.8,307,117.8z M311.3,136c0,3.8-2.2,5.3-4.4,5.3c-2.1,0-4.4-1.6-4.4-5.3c0-1.4,0-5.1,0-5.1s0-3.5,0-4.9      c0-3.7,2.2-5.3,4.4-5.3c2.1,0,4.4,1.5,4.4,5.3c0,1.4,0,4.1,0,5C311.3,131.1,311.3,134.6,311.3,136z M277.4,120.6      c-1.7-1-3.5-1.9-6-2.1c-7.7-0.7-13.6,6.1-13.6,12.4c0,8.2,6.3,11.3,7.3,11.7c3.6,1.7,8.2,1.7,12.3-0.9c0,0.2,0,1.4,0,1.4h10.6      v-35.5h-10.5C277.4,107.5,277.4,115.1,277.4,120.6z M277.5,131.1c0,0,0,2.7,0,4.2c0,3.6-2.5,4.6-4.2,4.6c-1.7,0-4.2-1-4.2-4.6      c0-1.3,0-4.2,0-4.2s0-3,0-4.2c0-3.7,2.5-4.6,4.2-4.6c1.7,0,4.2,0.9,4.2,4.6C277.5,128.1,277.5,131.1,277.5,131.1z M155.6,118.3      c-3.5,0.1-6.5,1.6-8.5,3.6c0-0.6,0-2.5,0-2.5l-10.6,0l0,23.6h10.6c0,0,0-14.5,0-15.5c0-2.1,2.2-4.3,5.1-4.3      c2.9,0,4.9,2.3,4.9,4.3c0,1.5,0,15.5,0,15.5h10.6c0,0,0-11.2,0-12.8C167.7,120.8,159.6,118.2,155.6,118.3z M242.4,118.3      c-3.5,0.1-6.5,1.6-8.5,3.6c0-0.6,0-2.5,0-2.5l-10.6,0l0,23.6h10.6c0,0,0-14.5,0-15.5c0-2.1,2.2-4.3,5.1-4.3      c2.9,0,4.9,2.3,4.9,4.3c0,1.5,0,15.5,0,15.5h10.6c0,0,0-11.2,0-12.8C254.5,120.8,246.3,118.2,242.4,118.3z M220,131.3      c0-7.3-7.1-13.4-15.8-13.4c-8.7,0-15.7,5.9-15.7,13.3c0,7.3,7,13.3,15.7,13.3c7.2,0,13.3-4.1,15.2-9.7l-10.6,0c0,0,0,0.1,0,1.4      c0,4.3-2.8,5.3-4.4,5.3c-1.6,0-4.5-1-4.5-5.3c0-1.3,0-4.9,0-4.9S220,131.3,220,131.3z M200.6,123c0.8-1.5,2.4-2.1,3.8-2.2      c1.4,0,2.9,0.7,3.8,2.2c0.7,1.2,0.7,2.6,0.7,4.6h-8.9C199.9,125.5,199.9,124.2,200.6,123z M326.9,111.9c0-1.2-0.9-1.7-2.6-1.7      h-2.4v6.1h1.5v-2.5h0.7l1.2,2.5h1.6l-1.3-2.7C326.4,113.3,326.9,112.7,326.9,111.9z M324.1,112.8h-0.7v-1.8h0.6      c0.9,0,1.3,0.3,1.3,0.9C325.4,112.6,325,112.8,324.1,112.8z M324.2,107.8c-3,0-5.5,2.4-5.5,5.5c0,3,2.5,5.5,5.5,5.5      c3,0,5.5-2.5,5.5-5.5C329.6,110.2,327.2,107.8,324.2,107.8z M324.2,117.7c-2.4,0-4.4-2-4.4-4.4c0-2.4,2-4.4,4.4-4.4      c2.4,0,4.4,2,4.4,4.4C328.6,115.7,326.6,117.7,324.2,117.7z M312.3,87.6H86.1c-23.9-0.1-40,17.2-40,37.8      c0,20.6,16,37.6,40.1,37.6h226.1c24,0,40.1-17,40.1-37.6C352.3,104.7,336.2,87.5,312.3,87.6z M312.1,153.8h-226      c-19.1,0.1-30.7-12.7-30.7-28.5s11.7-28.4,30.7-28.5h226c19,0,30.7,12.7,30.7,28.5S331.2,153.8,312.1,153.8z M312.3,87.6H86.1      c-23.9-0.1-40,17.2-40,37.8c0,20.6,16,37.6,40.1,37.6h226.1c24,0,40.1-17,40.1-37.6C352.3,104.7,336.2,87.5,312.3,87.6z       M312.1,153.8h-226c-19.1,0.1-30.7-12.7-30.7-28.5s11.7-28.4,30.7-28.5h226c19,0,30.7,12.7,30.7,28.5S331.2,153.8,312.1,153.8z       M312.3,87.6H86.1c-23.9-0.1-40,17.2-40,37.8c0,20.6,16,37.6,40.1,37.6h226.1c24,0,40.1-17,40.1-37.6      C352.3,104.7,336.2,87.5,312.3,87.6z M312.1,153.8h-226c-19.1,0.1-30.7-12.7-30.7-28.5s11.7-28.4,30.7-28.5h226      c19,0,30.7,12.7,30.7,28.5S331.2,153.8,312.1,153.8z"/>
			</g>
		</g>
		<g>
			<path class="st2" d="M34.4,24.8h6.9l4.7,11h0.2c0-1.7-0.1-3.4,0.2-5.1l0.9-6h6.9l-3.2,19.9h-6.9l-4.7-10.4h-0.2     c0,1.4,0,2.7-0.2,4l-1,6.5h-6.9L34.4,24.8z"/>
			<path class="st2" d="M56.2,24.8h7.2l-3.2,19.9H53L56.2,24.8z"/>
			<path class="st2" d="M65.3,24.8h6.9l4.7,11h0.2c0-1.7-0.1-3.4,0.2-5.1l0.9-6h6.9l-3.2,19.9h-6.9l-4.7-10.4h-0.2     c0,1.4,0,2.7-0.2,4l-1,6.5h-6.9L65.3,24.8z"/>
			<path class="st2" d="M85.7,24.8h15.2l-1,6.5l-4-0.2l-2.2,13.6h-7.2l2.2-13.6l-4,0.2L85.7,24.8z"/>
			<path class="st2" d="M101.4,24.8h13.4l-0.9,5.4h-6.1l-0.3,1.9h5.6l-0.8,5.2h-5.6l-0.3,2h6.3l-0.9,5.4H98.2L101.4,24.8z"/>
			<path class="st2" d="M116.5,24.8h6.9l4.7,11h0.2c0-1.7-0.1-3.4,0.2-5.1l0.9-6h6.9l-3.2,19.9h-6.9l-4.7-10.4h-0.2     c0,1.4,0,2.7-0.2,4l-1,6.5h-6.9L116.5,24.8z"/>
			<path class="st2" d="M138.3,24.8h7.4c6.7,0,11.3,2.9,10.2,10.2c-0.9,5.9-5.7,9.7-11.5,9.7h-9.2L138.3,24.8z M143.4,38.7h0.5     c2.4,0,4.4-1.1,4.8-3.7c0.4-2.8-1-4-3.6-4h-0.5L143.4,38.7z"/>
			<path class="st2" d="M178.5,34.8c-1,6.4-6.6,10.2-12.6,10.2c-6.1,0-10.4-3.8-9.4-10.2c1-6.3,6.6-10.3,12.6-10.3     C175.2,24.5,179.5,28.5,178.5,34.8z M163.7,34.9c-0.4,2.3,0.9,3.8,3.1,3.8c2.2,0,4-1.6,4.3-3.8c0.3-2.1-0.8-3.9-3.1-3.9     C165.8,31,164.1,32.8,163.7,34.9z"/>
			<path class="st2" d="M201.8,32.8c-1-1.1-2.3-2-3.9-2c-2.2,0-4.2,1.7-4.5,3.9c-0.3,2.2,1.3,3.9,3.4,3.9c1.7,0,3.1-0.7,4.4-1.8     l-1.4,7.4c-1.3,0.6-4,0.8-5.3,0.8c-5.7,0-9.4-4.4-8.5-10.1c0.9-5.8,6.2-10.4,12.1-10.4c1.6,0,3.3,0.3,4.7,0.8L201.8,32.8z"/>
			<path class="st2" d="M204.3,24.8h7.2l-2.1,13.5h6.1l-1,6.4h-13.3L204.3,24.8z"/>
			<path class="st2" d="M220.9,44.7h-7.6l10.1-19.9h8l3.9,19.9h-7.7l-0.3-2.5h-5.5L220.9,44.7z M226.8,37.5l-0.3-3.5     c-0.1-0.8-0.1-1.7-0.1-2.6h-0.3l-2.3,6.1H226.8z"/>
			<path class="st2" d="M237.8,37.5l0.3,0.3c1.1,1,2.6,1.8,4.2,1.8c0.7,0,1.9-0.3,2-1.2c0.1-0.9-0.8-1-1.4-1.1l-1.4-0.3     c-2.7-0.5-4.9-2.2-4.4-5.3c0.7-4.7,5.5-7.4,9.8-7.4c2.3,0,4.3,0.6,6,1.7l-2.8,5.1c-1.1-0.8-2.4-1.5-4-1.5c-0.6,0-1.6,0.2-1.7,1.1     c-0.1,0.7,0.8,0.8,1.3,1l1.6,0.4c2.9,0.7,4.9,2.3,4.4,5.7c-0.8,4.7-5.5,7.1-9.8,7.1c-2.5,0-5.3-0.7-7.4-1.8L237.8,37.5z"/>
			<path class="st2" d="M253.9,37.5l0.3,0.3c1.1,1,2.6,1.8,4.2,1.8c0.7,0,1.9-0.3,2-1.2c0.1-0.9-0.8-1-1.4-1.1l-1.4-0.3     c-2.7-0.5-4.9-2.2-4.4-5.3c0.8-4.7,5.5-7.4,9.8-7.4c2.3,0,4.3,0.6,6,1.7l-2.8,5.1c-1.1-0.8-2.4-1.5-4-1.5c-0.6,0-1.6,0.2-1.7,1.1     c-0.1,0.7,0.8,0.8,1.3,1l1.6,0.4c3,0.7,4.9,2.3,4.4,5.7c-0.8,4.7-5.5,7.1-9.8,7.1c-2.5,0-5.3-0.7-7.4-1.8L253.9,37.5z"/>
			<path class="st2" d="M271,24.8h7.2L275,44.7h-7.2L271,24.8z"/>
			<path class="st2" d="M293.7,32.8c-1-1.1-2.3-2-3.9-2c-2.2,0-4.2,1.7-4.5,3.9c-0.3,2.2,1.3,3.9,3.4,3.9c1.7,0,3.1-0.7,4.4-1.8     l-1.4,7.4c-1.2,0.6-4,0.8-5.3,0.8c-5.7,0-9.4-4.4-8.5-10.1c0.9-5.8,6.2-10.4,12.1-10.4c1.6,0,3.3,0.3,4.7,0.8L293.7,32.8z"/>
			<path class="st2" d="M305.6,24.8h7.4l1.1,10.4h0.2c0.3-0.9,0.5-1.8,0.9-2.6l3.5-7.8h7.4l0.1,19.9h-7l0.8-10.9h-0.1     c-0.2,0.7-0.5,1.3-0.8,2l-4.3,8.9h-4.2l-1.3-8.4c-0.1-0.8-0.1-1.6-0.1-2.5H309c-0.2,0.8-0.4,1.6-0.6,2.4l-2.2,8.5h-7L305.6,24.8z     "/>
			<path class="st2" d="M330.5,24.8h7.2l-3.2,19.9h-7.2L330.5,24.8z"/>
			<path class="st2" d="M339.6,24.8h6.9l4.7,11h0.2c0-1.7-0.1-3.4,0.2-5.1l0.9-6h6.9l-3.2,19.9h-6.9l-4.7-10.4h-0.2     c0,1.4,0,2.7-0.2,4l-1,6.5h-6.9L339.6,24.8z"/>
			<path class="st2" d="M361.4,24.8h7.2l-3.2,19.9h-7.2L361.4,24.8z"/>
		</g>
	</g>
	<rect class="st3" width="399.9" height="262"/>
</g>
</svg>