<?xml version="1.0" encoding="utf-8"?>
<!-- Generator: Adobe Illustrator 13.0.0, SVG Export Plug-In . SVG Version: 6.00 Build 14948)  -->
<!DOCTYPE svg PUBLIC "-//W3C//DTD SVG 1.1//EN" "http://www.w3.org/Graphics/SVG/1.1/DTD/svg11.dtd">
<svg version="1.1" id="svg2" xmlns:svg="http://www.w3.org/2000/svg"
	 xmlns="http://www.w3.org/2000/svg" xmlns:xlink="http://www.w3.org/1999/xlink" x="0px" y="0px" width="149.361px"
	 height="119.059px" viewBox="0 0 149.361 119.059" enable-background="new 0 0 149.361 119.059" xml:space="preserve">
<path id="path88" d="M145.213,114.495v0.677h-1.149v3.14h-0.791v-3.14h-1.146v-0.677H145.213z"/>
<path id="path90" d="M148.221,114.495h1.141v3.816h-0.739v-2.582c0-0.072,0.001-0.179,0.003-0.313
	c0.001-0.132,0.004-0.235,0.004-0.31l-0.723,3.204h-0.778l-0.719-3.204c0,0.074,0.003,0.178,0.003,0.31
	c0.001,0.134,0.001,0.24,0.001,0.313v2.582h-0.738v-3.816h1.156l0.696,3.001L148.221,114.495L148.221,114.495z"/>
<path id="path2915" fill="none" stroke="#EFEFEF" d="M0.75,9.211v101.583c0,0,0,7.514,8.45,7.514c8.245,0,124.143,0,124.143,0
	s7.536,0,7.536-7.514c0-8.115,0-101.583,0-101.583s0-8.461-7.536-8.461c-7.533,0-124.143,0-124.143,0S0.75,0.75,0.75,9.211
	L0.75,9.211z"/>
<g>
	<path id="path68" fill="#EFEFEF" d="M35.623,18.626c-2.008-2.847-5.319-4.703-9.065-4.703c-6.131,0-11.096,4.967-11.096,11.095
		c0,6.126,4.965,11.094,11.096,11.094c4.447,0,8.285-2.622,10.057-6.401h-9.794v-5.045h15.642c0.005,0.119,0.009,0.235,0.009,0.353
		c0,1.631-0.244,3.208-0.701,4.692c-2.002,6.499-8.054,11.229-15.212,11.229c-8.791,0-15.918-7.131-15.918-15.921
		c0-8.793,7.127-15.918,15.918-15.918c6.516,0,12.113,3.919,14.577,9.525H35.623L35.623,18.626z"/>
	<path id="path70" fill="#EFEFEF" d="M59.357,9.416L59.357,9.416L39.244,39.704h6.227l4.296-6.469h9.59v6.481h5.188V9.416
		L59.357,9.416L59.357,9.416z M53.21,28.047l6.146-9.252v9.252H53.21z"/>
	<path id="path72" fill="#EFEFEF" d="M105.165,9.416L105.165,9.416l-13.87,20.879V9.416h-5.188v0.001L65.994,39.704h6.232
		l13.881-20.91v20.923h5.188V39.68l13.87-20.886v20.923h5.187V9.416L105.165,9.416L105.165,9.416z"/>
	<path id="path74" fill="#EFEFEF" d="M130.306,14.604V9.416h-15.758v30.309l5.187-0.02h10.571v-5.189h-10.571v-7.063h10.571v-5.186
		h-10.571v-7.663H130.306z"/>
	<path id="path86" fill="#EFEFEF" d="M79.656,64.652c1.662-3.743,4.16-9.369,4.16-9.369h-5.089l-2.679,6.039l-3.989-3.684
		c1.826-1.467,3.43-3.324,3.43-6.42c0-1.662-0.657-3.231-1.841-4.421c-1.355-1.351-3.262-2.126-5.237-2.126
		c-3.424,0-6.969,2.448-6.969,6.547c0,2.855,1.572,4.7,3.134,6.066c-2.892,2.048-5.409,4.228-5.409,8.724
		c0,2.552,0.924,4.873,2.599,6.548c1.689,1.691,4.048,2.622,6.646,2.622c4.917,0,7.357-2.38,9.226-6.06l6.033,5.576l3.16-3.415
		L79.656,64.652L79.656,64.652z M66.581,50.033c0.438-0.44,1.143-0.71,1.829-0.71c0.731,0,1.475,0.292,1.946,0.763
		c0.326,0.325,0.484,0.693,0.484,1.132c0,1.306-0.626,2.018-2.337,3.283c-1.496-1.198-2.411-2.033-2.411-3.283
		C66.093,50.753,66.252,50.363,66.581,50.033 M73.96,66.021c-1.605,3.576-2.745,4.503-5.55,4.503c-1.378,0-2.535-0.437-3.357-1.253
		c-0.809-0.812-1.234-1.938-1.234-3.263c0-2.445,1.257-3.414,4.351-5.557c0.016-0.011,0.033-0.024,0.045-0.034l5.839,5.394
		L73.96,66.021L73.96,66.021z"/>
	<path id="path76" fill="#EFEFEF" d="M58.587,78.907L58.587,78.907l-20.111,30.288h6.227l4.296-6.467h9.589v6.482h5.189V78.907
		H58.587L58.587,78.907z M52.441,97.542l6.146-9.251v9.251H52.441z"/>
	<path id="path78" fill="#EFEFEF" d="M16.15,109.211L16.15,109.211l13.863-20.887v20.887H35.2v-0.001l0,0l20.114-30.288h-6.229
		L35.2,99.828V78.907h-5.188v0.04L16.15,99.828V78.907h-5.19v30.304H16.15L16.15,109.211z"/>
	<path id="path80" fill="#EFEFEF" d="M127.322,78.907v12.2h-9.366v-12.2h-5.186v30.299h5.186V96.299h9.366v12.907h5.189V78.907
		H127.322z"/>
	<path id="path82" fill="#EFEFEF" d="M82.737,78.907H65.805v5.187h5.873v25.112h5.189V84.094h5.869V78.907z"/>
	<path id="path84" fill="#EFEFEF" d="M105.438,101.039c-1.992,2.215-4.873,3.604-8.086,3.604c-6.013,0-10.885-4.872-10.885-10.879
		c0-6.01,4.872-10.882,10.885-10.882c3.161,0,6.01,1.421,7.995,3.605h6.077c-2.656-5.053-7.962-8.623-14.072-8.623
		c-8.78,0-15.897,7.119-15.897,15.899c0,8.778,7.117,15.9,15.897,15.9c6.154,0,11.489-3.51,14.132-8.625H105.438z"/>
</g>
</svg>
